<?xml version="1.0" encoding="UTF-8"?>
<!-- Generated by Pixelmator Pro 3.6.14 -->
<svg width="1069" height="579" viewBox="0 0 1069 579" xmlns="http://www.w3.org/2000/svg">
    <g id="15KURRAO-PNG-NEGRO-1">
        <path id="Path" fill="#ffffff" stroke="none" d="M 136.100235 9.781616 L 93.180725 18.964478 L 92.581863 58.490417 L 92.182594 98.016205 L 100.566879 97.018158 C 112.145172 95.421082 149.674805 91.827881 154.266159 91.827881 C 157.859467 91.827881 158.059082 95.620758 158.458328 201.023041 L 159.057205 310.417969 L 212.956131 310.417969 L 266.855072 310.417969 L 267.453918 155.109192 L 267.85318 0 L 223.536316 0.199646 L 179.019775 0.399231 L 136.100235 9.781616 Z"/>
        <path id="path1" fill="#ffffff" stroke="none" d="M 337.722198 4.391785 C 334.927429 10.979492 303.785797 182.058655 304.983582 184.054901 C 305.582428 184.853394 333.130768 185.651886 366.468262 185.651886 C 432.544342 185.651886 442.32605 186.849701 451.708435 196.830933 C 455.301697 200.62381 456.49942 204.217102 456.49942 210.605103 C 456.49942 225.776703 443.923035 234.360535 416.374695 237.953827 C 388.027832 241.746704 339.718414 235.159119 313.168182 223.780396 C 308.177582 221.584503 303.586182 220.386749 302.987305 220.985657 C 302.388428 221.784149 301.789581 238.153503 301.789581 257.51712 L 301.789581 292.850922 L 315.364075 299.039246 C 368.065277 322.994354 443.124542 329.781616 495.626068 315.208923 C 546.131348 301.235168 573.480042 266.699951 573.280518 216.793549 C 573.080811 175.470978 552.519348 140.736084 518.9823 124.766113 C 498.620453 114.984467 479.256775 111.790405 442.525665 111.790405 L 411.98291 111.790405 L 404.397156 124.766113 C 400.205017 131.75293 396.412109 137.342468 396.012848 136.943207 C 395.613617 136.543976 398.208771 130.355621 401.802002 123.568268 C 405.395264 116.581451 409.387817 105.402405 410.585541 98.814697 L 412.781433 86.837158 L 480.454498 85.839111 L 548.327271 84.840942 L 554.715271 44.915771 C 558.308594 22.957031 560.903687 3.792847 560.30481 2.395569 C 559.705872 0.598938 535.551208 0 449.512543 0 L 339.718414 0 L 337.722198 4.391785 Z"/>
        <path id="path2" fill="#ffffff" stroke="none" d="M 617.397766 2.595154 C 615.80072 4.791016 615.401489 47.510925 615.601135 163.8927 L 616.199951 322.395508 L 679.082031 322.395508 L 741.964111 322.395508 L 742.563049 258.91452 C 742.96228 211.403595 743.561218 195.433533 745.357727 196.03244 C 746.555603 196.431671 766.31842 225.177795 789.075806 259.713013 L 830.398376 322.395508 L 900.866211 322.994354 C 940.591675 323.194 972.132507 322.595093 973.130676 321.597015 C 974.128845 320.598877 961.153137 299.238922 941.190613 269.295074 C 922.625366 241.347443 899.069519 205.814087 889.088257 190.442902 L 870.523132 162.096039 L 918.632813 83.842773 C 944.983459 40.524048 966.343445 4.1922 965.744507 2.595154 C 964.946045 0.598938 951.770752 0 898.869995 0 L 832.99353 0 L 829.200562 5.389954 C 827.004761 8.583923 804.44696 45.115417 778.894897 86.837158 C 727.591125 170.679962 731.383972 164.691162 729.986572 163.293854 C 729.387756 162.694946 731.783203 156.107269 735.376526 148.521515 L 741.964111 134.747314 L 741.964111 67.872803 L 741.964111 0.998169 L 680.878662 0.399231 C 630.97229 0 619.393982 0.399231 617.397766 2.595154 Z"/>
        <path id="path3" fill="#ffffff" stroke="none" d="M 943.58606 386.076111 C 914.839966 391.865234 896.075134 401.447266 878.707764 419.014343 C 857.347839 440.773499 846.567993 468.521484 846.567993 501.858948 C 846.567993 552.164612 879.506287 578.714844 941.789429 578.91449 C 981.7146 578.91449 1011.658447 567.935059 1034.615356 545.177734 C 1057.372681 522.42041 1069.949219 489.082916 1067.753296 457.142792 C 1065.357666 420.611328 1046.393311 398.05365 1009.861816 388.072327 C 994.490601 383.880188 960.354675 382.88208 943.58606 386.076111 Z M 981.7146 438.976868 C 991.496216 444.965637 995.089539 454.94696 994.09137 473.911377 C 992.494385 501.858948 979.718384 521.821533 960.154968 527.011841 C 934.203674 534.198303 916.436951 517.429749 919.23175 488.48407 C 921.627197 464.528961 931.009644 447.361145 946.181213 439.176483 C 955.962891 433.986267 973.330261 433.986267 981.7146 438.976868 Z"/>
        <path id="path4" fill="#ffffff" stroke="none" d="M 42.675426 408.633789 C 7.341697 470.916992 0.354791 483.693024 0.354791 485.689301 C 0.554414 487.086639 11.933086 506.849609 26.106499 530.006226 L 51.658581 571.927612 L 75.214417 572.526428 C 100.367256 573.125305 106.555649 571.328674 96.973625 566.338074 C 89.18821 562.145874 81.602432 553.761658 76.012932 542.981873 C 68.027885 527.411072 68.626778 506.450378 78.009178 449.357422 C 82.600571 422.607574 86.193825 398.452881 86.193825 396.057373 C 86.193825 391.465942 85.794579 391.266327 69.42527 391.266327 L 52.656719 391.266327 L 42.675426 408.633789 Z"/>
        <path id="path5" fill="#ffffff" stroke="none" d="M 144.284897 444.36676 C 134.104004 506.051117 134.104004 514.63501 143.885651 523.418518 C 148.876312 527.810303 152.070313 529.008057 159.656067 529.008057 C 176.624268 529.008057 189.200668 518.827148 193.991699 501.060455 C 196.187561 493.075409 211.958023 399.051758 211.958023 394.260712 C 211.958023 391.665588 207.166977 391.266327 182.413406 391.266327 L 152.868805 391.266327 L 144.284897 444.36676 Z"/>
        <path id="path6" fill="#ffffff" stroke="none" d="M 277.834473 392.264465 C 277.834473 400.648743 258.67041 505.252563 255.67601 514.036133 C 247.69101 536.394226 231.321686 556.556396 214.952408 564.341797 C 211.159485 566.138428 207.965469 568.933228 207.965469 570.330566 C 207.965469 572.326843 215.950516 572.92572 245.694748 572.92572 C 266.655426 572.92572 284.022888 572.127197 284.621735 571.129028 C 285.220612 570.330566 287.017273 560.548889 288.813873 549.769104 C 293.604889 519.426025 292.806427 521.023071 301.589935 521.023071 L 309.17569 521.023071 L 320.354736 546.375488 L 331.334167 571.927612 L 370.460815 572.526428 C 402.400879 572.92572 409.587433 572.526428 409.587433 570.330566 C 409.587433 568.733582 403.399048 555.558289 395.613617 540.78595 C 388.027832 526.213257 381.639801 513.437256 381.639801 512.838379 C 381.639801 512.039917 386.430847 508.64624 392.419617 505.452209 C 426.555573 486.088531 438.533112 435.383606 414.578033 410.630035 C 398.208771 393.86145 386.830078 391.266327 326.343506 391.266327 C 299.593658 391.266327 277.834473 391.665588 277.834473 392.264465 Z M 351.496338 446.363037 C 353.891846 449.357422 355.688507 452.551422 355.688507 453.549561 C 355.688507 458.540192 349.1008 468.7211 344.50946 470.916992 C 338.121429 473.711761 301.789581 473.911377 301.789581 470.916992 C 301.789581 469.918884 302.787689 462.73233 303.985413 454.94696 L 306.38092 441.17276 L 326.942383 441.17276 C 346.705353 441.17276 347.503845 441.372375 351.496338 446.363037 Z"/>
        <path id="path7" fill="#ffffff" stroke="none" d="M 449.512543 392.663727 C 449.512543 393.661865 443.324158 432.988098 435.538727 479.900146 C 427.952972 527.011841 421.564972 567.136536 421.564972 569.132813 C 421.564972 572.726074 423.760803 572.92572 454.303589 572.92572 L 487.042206 572.92572 L 488.239929 567.336182 C 489.437653 561.347412 495.426422 523.618164 495.426422 522.021179 C 495.426422 521.222656 499.21936 521.023071 503.81073 521.422302 L 511.995392 522.021179 L 522.974792 547.373596 L 534.153809 572.92572 L 572.282349 572.92572 C 593.243042 572.92572 611.209351 572.326843 611.808228 571.52832 C 612.60675 570.929443 606.418335 557.354919 598.034058 541.384827 C 589.849426 525.61438 583.261719 512.439148 583.66095 512.239502 C 584.060181 512.039917 588.451965 509.444763 593.442688 506.450378 C 608.015259 498.066071 620.392151 482.894531 625.183105 467.722961 C 635.364075 434.784729 626.181274 410.829651 598.832581 398.05365 L 586.256104 392.264465 L 517.984131 391.665588 C 480.254883 391.266327 449.512543 391.865234 449.512543 392.663727 Z M 553.317871 445.165253 C 559.705872 451.553284 557.709656 462.133453 548.526917 469.519592 C 545.133179 472.314331 540.142578 473.112885 523.573669 473.112885 C 503.211853 473.112885 503.012238 473.112885 504.010406 468.521484 C 504.609222 466.125946 505.806946 459.53833 506.60553 454.148407 C 507.204346 448.558899 508.202515 443.568298 508.801331 442.570129 C 509.200592 441.771606 518.583069 441.17276 529.562439 441.17276 C 546.730286 441.17276 549.924255 441.771606 553.317871 445.165253 Z"/>
        <path id="path8" fill="#ffffff" stroke="none" d="M 672.095215 481.09787 C 647.341614 530.405457 627.179443 571.328674 627.179443 571.927612 C 627.179443 572.526428 643.149414 572.92572 662.912354 572.92572 L 698.44574 572.92572 L 705.033447 557.953796 L 711.621033 542.981873 L 738.969727 542.981873 L 766.518127 542.981873 L 768.314758 557.354919 L 769.911743 571.927612 L 804.646606 572.526428 C 823.810669 572.726074 840.179993 572.326843 840.778809 571.52832 C 841.577332 570.530212 837.984131 546.575073 832.793823 518.028687 C 827.603577 489.482178 820.417053 449.357422 816.82373 428.596375 L 810.236145 391.266327 L 763.523743 391.266327 L 717.010986 391.266327 L 672.095215 481.09787 Z M 757.534973 440.573914 C 756.936035 451.952576 757.534973 464.12973 759.531189 475.1091 C 761.128235 484.491516 762.126343 492.676178 761.527527 493.47467 C 760.329651 495.670563 732.980957 495.470947 732.980957 493.275024 C 732.980957 492.476563 737.372742 482.295654 742.762634 470.717346 C 748.352112 459.139069 753.742065 443.967529 755.139465 436.58136 C 756.536804 429.195221 757.934204 423.206451 758.13385 423.206451 C 758.533142 423.206451 758.13385 430.991882 757.534973 440.573914 Z"/>
    </g>
</svg>
