<?xml version="1.0" encoding="UTF-8"?>
<!-- Generated by Pixelmator Pro 3.6.14 -->
<svg width="1068" height="149" viewBox="0 0 1068 149" xmlns="http://www.w3.org/2000/svg">
    <g id="Group">
        <path id="Path"  stroke="none" d="M 745.443848 3.790237 C 722.118958 9.762497 712.796387 17.411987 702.223267 40.76017 C 689.111694 69.202965 685.344482 105.268951 692.582275 123.501106 C 701.947144 145.972839 738.444519 154.830475 773.215698 142.902695 C 786.360718 138.217575 788.4776 135.244843 792.693848 116.572205 C 795.646667 104.689232 798.171143 89.837204 798.16217 83.473579 C 798.569824 71.594193 798.569824 71.594193 774.389893 72.900963 C 753.179504 74.203644 749.787415 75.481133 749.797546 82.693237 C 749.806519 89.05687 753.203979 91.597504 763.811157 92.431122 C 778.237183 93.683517 779.940918 98.347717 773.17804 116.175461 C 769.374146 126.362686 766.829956 127.214745 746.042114 127.244026 C 713.375488 127.290039 707.851379 120.934181 710.772095 86.142197 C 715.368042 36.075058 731.889648 19.082031 772.621033 21.994308 C 794.259888 23.660873 798.076721 22.807022 799.764282 16.016769 C 801.030945 11.772522 800.60083 7.53067 799.326843 6.68399 C 792.533691 2.875336 757.318481 0.803757 745.443848 3.790237 Z"/>
        <path id="path1"  stroke="none" d="M 28.4821 9.891037 C 25.947443 17.531052 1.083894 135.929779 1.091065 141.020706 C 1.100029 147.384338 18.067852 146.087723 20.180162 139.7211 C 21.025047 137.174408 23.975573 123.594482 26.501959 110.015167 C 31.134487 85.826782 31.558125 85.401947 44.71151 86.656128 C 56.591995 87.912201 58.716854 90.45462 68.086586 116.320236 C 77.030388 140.913727 80.00602 145.152008 88.490822 145.140045 C 94.005981 145.132278 98.671478 144.277237 98.67028 143.428665 C 98.669083 142.5802 93.983276 129.011032 88.022362 113.746735 C 75.672729 80.673203 75.67392 81.521675 82.886116 81.511513 C 93.067871 81.497169 107.888222 61.536896 109.985588 44.564194 C 111.665199 32.258781 109.959297 25.897537 103.584312 17.845932 C 96.359657 8.946945 90.84211 7.257782 62.840286 6.024506 C 38.656776 4.785873 30.173065 5.646301 28.4821 9.891037 Z M 89.194168 42.047966 C 90.915016 59.015289 77.777267 68.791428 52.746983 68.826683 C 37.474213 68.848198 34.502769 67.579582 36.614983 61.212959 C 37.458076 57.393646 39.565605 47.633049 41.251789 39.994316 C 44.201717 25.990173 44.201717 25.990173 65.839912 27.232399 C 87.053772 28.47522 87.90284 28.898262 89.194168 42.047966 Z"/>
        <path id="path2"  stroke="none" d="M 139.212814 12.280579 C 132.456619 34.77491 119.824379 102.24736 119.842903 115.398849 C 119.876373 139.156433 131.342285 147.200867 164.433136 147.154251 C 206.008896 147.095688 212.361176 139.026154 227.958282 68.155632 C 241.027908 10.015869 241.020737 4.925049 229.990509 4.940582 C 225.323822 4.947159 221.506805 5.80101 221.507996 6.649475 C 221.524734 18.528259 198.322357 111.470078 193.665833 118.688843 C 188.162628 127.181427 184.346207 128.459503 165.253525 127.213699 C 143.191193 125.972061 143.191193 125.972061 141.896973 110.701088 C 141.03714 102.641708 144.395767 77.606644 149.456207 55.963165 C 154.091827 33.895958 157.881256 13.526978 157.877075 10.557327 C 157.865128 2.072433 141.746368 3.792084 139.212814 12.280579 Z"/>
        <path id="path3"  stroke="none" d="M 271.146118 7.852264 C 268.183044 12.523132 242.895264 130.922455 242.906021 138.558884 C 242.910797 141.952774 246.733109 144.91713 251.399796 144.910568 C 260.308838 144.89801 261.999298 140.228928 275.062958 77.846809 L 282.225464 42.624619 L 303.509827 93.928009 C 321.815002 138.447723 325.642792 145.230209 333.701569 143.946152 C 341.33609 142.662598 344.295685 135.446304 356.09491 79.005371 C 372.532196 2.194275 372.534607 3.891312 360.658203 5.60498 C 352.599426 6.889038 350.061188 11.983551 342.477325 49.327621 C 337.419373 72.668037 332.359528 94.735847 331.091614 98.131523 C 330.247803 101.526703 320.038574 82.025917 308.545166 54.466255 C 293.2211 18.003036 285.566132 4.862289 280.475311 4.869461 C 276.23288 4.875443 271.992218 6.154129 271.146118 7.852264 Z"/>
        <path id="path4"  stroke="none" d="M 387.899292 69.203041 C 380.313171 104.850067 374.418579 136.67659 374.42218 139.222092 C 374.434143 147.706909 390.552368 145.563019 393.085846 137.074524 C 395.619415 128.586136 412.476654 48.804779 412.894318 44.137497 C 412.891327 42.016319 416.720917 50.07151 421.404327 61.943726 C 453.758484 141.231522 455.88504 145.046753 464.792389 143.76149 C 472.42691 142.477936 475.385895 134.837402 487.609955 78.820114 C 504.047272 2.009003 504.049652 3.706039 492.173248 5.419724 C 483.690125 6.704376 481.576233 11.798294 472.303223 54.659912 C 466.825104 80.970673 460.913788 100.918396 459.214478 99.223846 C 457.515045 97.529198 447.72644 75.482407 437.508759 50.042229 C 422.182892 12.306198 417.505432 4.676437 410.293335 4.686584 C 401.808533 4.698547 400.119843 10.640335 387.899292 69.203041 Z"/>
        <path id="path5"  stroke="none" d="M 519.411987 67.320831 C 511.823944 101.69516 505.929474 133.521667 505.934845 137.33989 C 505.948578 147.097412 521.64502 146.651062 524.60083 136.889267 C 527.13446 128.400864 552.421021 9.152985 552.41748 6.607574 C 552.415649 5.334854 548.171936 4.492371 542.656738 4.500137 C 533.323608 4.513275 532.056152 8.333191 519.411987 67.320831 Z"/>
        <path id="path6"  stroke="none" d="M 582.11377 6.141495 C 582.11792 9.111145 556.83075 127.934799 554.297852 136.847427 C 552.609314 142.789215 554.732788 144.483261 562.369202 144.472504 C 571.702576 144.459366 572.971008 141.487823 581.822693 100.748077 C 586.880249 76.98333 591.939392 54.491379 593.207397 51.095604 C 594.47522 47.699829 604.68335 66.352142 615.751953 93.488167 C 631.92749 132.071472 637.881897 142.669098 645.095215 143.507507 C 651.460022 144.347015 654.850891 142.220947 656.53772 135.006454 C 657.802734 129.489502 663.279663 102.330276 669.179504 74.321976 C 675.079529 46.313576 680.556458 19.154343 681.821289 13.63739 C 683.508118 6.422897 682.232483 4.303513 675.444519 4.31308 C 664.838562 4.328018 663.993652 6.874634 651.767029 61.194984 L 642.494202 104.056503 L 636.10968 89.217026 C 632.28009 81.161835 622.915649 59.114349 614.828796 40.459045 C 603.762024 14.595825 598.234863 6.11879 591.445923 5.279877 C 586.353699 4.438583 582.111938 4.86879 582.11377 6.141495 Z"/>
        <path id="path7"  stroke="none" d="M 849.389221 7.886169 C 849.392761 10.431686 851.093323 12.974716 853.21637 14.244431 C 855.339233 15.514145 868.510559 29.495682 882.533325 45.597107 L 908.028503 74.409752 L 878.378662 107.966675 L 848.729553 141.947845 L 875.034363 143.183594 L 901.763489 144.418655 L 921.671143 121.905685 C 932.684143 109.587128 946.661316 93.446259 952.166931 86.65062 L 963.179321 73.907829 L 932.584961 39.162956 L 902.415344 4.841827 L 876.111755 4.454636 C 861.262634 4.051331 849.38623 5.764999 849.389221 7.886169 Z"/>
        <path id="path8"  stroke="none" d="M 976.278687 36.980225 C 992.850464 55.623573 1006.449524 72.149834 1006.452515 74.271103 C 1006.455505 76.392281 993.750916 92.531448 978.078613 109.947418 L 949.699158 141.805603 L 976.428101 143.040756 L 1002.733093 144.276413 L 1020.946655 123.887123 C 1030.688843 112.843056 1045.090332 96.701492 1051.866699 88.631363 L 1064.996826 73.340164 L 1032.705322 38.597687 L 999.989075 3.431671 L 973.262512 3.893555 L 946.111084 3.931793 L 976.278687 36.980225 Z"/>
    </g>
</svg>
