<?xml version="1.0" encoding="UTF-8"?>
<!-- Generated by Pixelmator Pro 3.6.14 -->
<svg width="1068" height="1064" viewBox="0 0 1068 1064" xmlns="http://www.w3.org/2000/svg">
    <g id="Group">
        <linearGradient id="linearGradient1" x1="3" y1="524.714675" x2="214.743594" y2="524.714675" gradientUnits="userSpaceOnUse">
            <stop offset="0" stop-color="#00b80d" stop-opacity="1"/>
            <stop offset="1" stop-color="#00dd52" stop-opacity="1"/>
        </linearGradient>
        <path id="Path" fill="url(#linearGradient1)" stroke="#000000" stroke-width="3.628422" stroke-opacity="0.557038" stroke-linecap="round" stroke-linejoin="round" d="M 55.93589 349.424622 L 4.203098 360.493103 L 3.481256 408.135437 L 3 455.777649 L 13.105956 454.574646 C 27.061792 452.649658 72.29792 448.318604 77.8321 448.318604 C 82.163261 448.318604 82.403877 452.89032 82.885109 579.936401 L 83.606949 711.794983 L 148.57373 711.794983 L 213.540527 711.794983 L 214.26236 524.594421 L 214.743591 337.634338 L 161.326508 337.875 L 107.668739 338.115601 L 55.93589 349.424622 Z"/>
        <linearGradient id="linearGradient2" x1="255.648645" y1="532.201633" x2="582.8901" y2="532.201633" gradientUnits="userSpaceOnUse">
            <stop offset="0" stop-color="#00b80d" stop-opacity="1"/>
            <stop offset="1" stop-color="#00dd52" stop-opacity="1"/>
        </linearGradient>
        <path id="path1" fill="url(#linearGradient2)" stroke="#000000" stroke-width="3.628422" stroke-opacity="0.557038" stroke-linecap="round" stroke-linejoin="round" d="M 298.959839 342.927979 C 295.591187 350.868408 258.054779 557.077759 259.498535 559.483887 C 260.220367 560.446411 293.425598 561.408813 333.608765 561.408813 C 413.253235 561.408813 425.043518 562.852661 436.35257 574.883423 C 440.683655 579.4552 442.12735 583.786377 442.12735 591.486084 C 442.12735 609.773071 426.968445 620.119568 393.763214 624.450684 C 359.595459 629.022461 301.365967 621.082153 269.3638 607.366821 C 263.348419 604.720032 257.814178 603.276367 257.092316 603.998291 C 256.370483 604.960693 255.648651 624.691406 255.648651 648.03125 L 255.648651 690.620605 L 272.01062 698.079712 C 335.533722 726.953857 426.005981 735.134827 489.288422 717.569702 C 550.164734 700.726563 583.129333 659.099731 582.888794 598.945313 C 582.648132 549.13739 557.864502 507.269836 517.440735 488.020508 C 492.897675 476.230225 469.5578 472.38031 425.284149 472.38031 L 388.469574 472.38031 L 379.326141 488.020508 C 374.273193 496.442078 369.701416 503.179382 369.220184 502.69812 C 368.738953 502.216919 371.867004 494.757813 376.19812 486.576721 C 380.529205 478.155151 385.341614 464.680542 386.785278 456.740112 L 389.432098 442.30304 L 471.001465 441.100037 L 552.811523 439.896912 L 560.511292 391.773315 C 564.842468 365.305481 567.970459 342.206055 567.248596 340.521851 C 566.526672 338.356262 537.411987 337.634338 433.70575 337.634338 L 301.365967 337.634338 L 298.959839 342.927979 Z"/>
        <linearGradient id="linearGradient3" x1="633.842564" y1="532.317176" x2="1064.91094" y2="532.317176" gradientUnits="userSpaceOnUse">
            <stop offset="0" stop-color="#00b80d" stop-opacity="1"/>
            <stop offset="1" stop-color="#00dd52" stop-opacity="1"/>
        </linearGradient>
        <path id="path2" fill="url(#linearGradient3)" stroke="#000000" stroke-width="3.628422" stroke-opacity="0.557038" stroke-linecap="round" stroke-linejoin="round" d="M 636.065308 340.76239 C 634.140259 343.40918 633.659058 394.901367 633.899719 535.181519 L 634.621521 726.232056 L 710.416077 726.232056 L 786.210693 726.232056 L 786.932556 649.715576 C 787.413818 592.448547 788.135681 573.199097 790.301208 573.921021 C 791.744995 574.402222 815.56604 609.051208 842.99646 650.67804 L 892.804443 726.232056 L 977.742432 726.953857 C 1025.625366 727.194519 1063.642944 726.472656 1064.846069 725.269592 C 1066.049194 724.066467 1050.409058 698.320435 1026.34729 662.227722 C 1003.969788 628.541199 975.576843 585.711243 963.545959 567.183716 L 941.168579 533.01593 L 999.15741 438.693787 C 1030.918945 386.479858 1056.665039 342.687439 1055.943237 340.76239 C 1054.980713 338.356262 1039.099976 337.634338 975.336304 337.634338 L 895.932434 337.634338 L 891.360657 344.131104 C 888.713928 347.980896 861.524048 392.014038 830.724976 442.30304 C 768.88623 543.362488 773.457947 536.143982 771.773621 534.459717 C 771.051819 533.737854 773.939209 525.797424 778.270386 516.653992 L 786.210693 500.051331 L 786.210693 419.444458 L 786.210693 338.837463 L 712.581665 338.115601 C 652.427307 337.634338 638.471436 338.115601 636.065308 340.76239 Z"/>
    </g>
</svg>
