<?xml version="1.0" encoding="UTF-8"?>
<!-- Generated by Pixelmator Pro 3.6.14 -->
<svg width="2895" height="1244" viewBox="0 0 2895 1244" xmlns="http://www.w3.org/2000/svg">
    <g id="15KURRAO-PNG-NEGRO-1">
        <linearGradient id="linearGradient1" x1="8" y1="622.821601" x2="688.912265" y2="622.821601" gradientUnits="userSpaceOnUse">
            <stop offset="0" stop-color="#00b80d" stop-opacity="1"/>
            <stop offset="1" stop-color="#00dd52" stop-opacity="1"/>
        </linearGradient>
        <path id="Path" fill="url(#linearGradient1)" stroke="#000000" stroke-width="8" stroke-opacity="0.557038" stroke-linecap="round" stroke-linejoin="round" d="M 293.596985 128.041748 C 55.150505 548.35437 8 634.572266 8 648.043945 C 9.347136 657.473877 86.135078 790.842407 181.783066 947.112549 L 354.218994 1230.015259 L 513.183411 1234.056641 C 682.92511 1238.098145 724.68689 1225.973633 660.023499 1192.294922 C 607.484253 1164.004395 556.292358 1107.424072 518.572144 1034.677612 C 464.685791 929.599487 468.727356 788.148193 532.04364 402.861633 C 563.028198 222.342712 587.276917 59.336914 587.276917 43.170898 C 587.276917 12.186279 584.582642 10.839111 474.115875 10.839111 L 360.954834 10.839111 L 293.596985 128.041748 Z"/>
        <linearGradient id="linearGradient2" x1="927.428895" y1="475.60784" x2="1435.985243" y2="475.60784" gradientUnits="userSpaceOnUse">
            <stop offset="0" stop-color="#00b80d" stop-opacity="1"/>
            <stop offset="1" stop-color="#00dd52" stop-opacity="1"/>
        </linearGradient>
        <path id="path1" fill="url(#linearGradient2)" stroke="#000000" stroke-width="8" stroke-opacity="0.557038" stroke-linecap="round" stroke-linejoin="round" d="M 979.299316 369.182617 C 910.594482 785.453857 910.594482 843.381592 976.605042 902.656189 C 1010.284058 932.293762 1031.838501 940.376587 1083.030273 940.376587 C 1197.538574 940.376587 1282.409302 871.671753 1314.741211 751.774902 C 1329.559692 697.88855 1435.985229 63.378296 1435.985229 31.046387 C 1435.985229 13.533325 1403.65332 10.839111 1236.606201 10.839111 L 1037.227051 10.839111 L 979.299316 369.182617 Z"/>
        <linearGradient id="linearGradient3" x1="1409.041922" y1="623.795029" x2="2888" y2="623.795029" gradientUnits="userSpaceOnUse">
            <stop offset="0" stop-color="#00b80d" stop-opacity="1"/>
            <stop offset="1" stop-color="#00dd52" stop-opacity="1"/>
        </linearGradient>
        <path id="path2" fill="url(#linearGradient3)" stroke="#000000" stroke-width="8" stroke-opacity="0.557038" stroke-linecap="round" stroke-linejoin="round" d="M 1880.546631 17.575073 C 1880.546631 74.155396 1751.219482 780.065063 1731.012207 839.339905 C 1677.126099 990.221497 1566.65918 1126.284302 1456.192627 1178.823242 C 1430.596436 1190.947754 1409.04187 1209.807983 1409.04187 1219.237915 C 1409.04187 1232.709595 1462.928223 1236.750977 1663.654541 1236.750977 C 1805.105835 1236.750977 1922.308472 1231.362427 1926.349854 1224.626465 C 1930.391235 1219.237915 1942.515747 1153.227295 1954.640015 1080.480835 C 1986.971924 875.713135 1981.583374 886.490601 2040.858154 886.490601 L 2092.050049 886.490601 L 2167.490723 1057.579224 L 2241.584473 1230.015259 L 2505.626953 1234.056641 C 2721.171631 1236.750977 2769.669434 1234.056641 2769.669434 1219.237915 C 2769.669434 1208.460815 2727.907715 1119.54834 2675.368408 1019.858765 C 2624.176514 921.516357 2581.067383 835.298462 2581.067383 831.25708 C 2581.067383 825.86853 2613.399414 802.966919 2653.813965 781.41217 C 2884.17749 650.73822 2965.006836 308.560608 2803.348145 141.513428 C 2692.881592 28.352173 2616.093506 10.839111 2207.905518 10.839111 C 2027.386597 10.839111 1880.546631 13.533325 1880.546631 17.575073 Z M 2377.646973 382.654297 C 2393.812988 402.861633 2405.9375 424.416077 2405.9375 431.151733 C 2405.9375 464.83075 2361.480957 533.535583 2330.496582 548.35437 C 2287.387695 567.2146 2042.205322 568.561707 2042.205322 548.35437 C 2042.205322 541.618713 2048.940918 493.120911 2057.023926 440.582031 L 2073.189697 347.628113 L 2211.946777 347.628113 C 2345.31543 347.628113 2350.703857 348.975281 2377.646973 382.654297 Z"/>
    </g>
</svg>
