<?xml version="1.0" encoding="UTF-8"?>
<!-- Generated by Pixelmator Pro 3.6.14 -->
<svg width="190" height="214" viewBox="0 0 190 214" xmlns="http://www.w3.org/2000/svg">
    <g id="U">
        <path id="Path" fill="#373a36" stroke="none" d="M 73.800003 165.48999 C 72.25238 165.563202 70.704247 165.356537 69.230003 164.880005 C 67.080002 164.26001 64.809998 164.100006 62.690002 163.51001 C 61.830002 163.269989 61.139999 162.51001 60.199997 162.600006 C 58.849998 162.660004 56.779999 164.209991 55.599998 164.859985 C 54.434464 165.615814 53.324928 166.454651 52.279999 167.369995 C 50.279999 168.890015 47.709999 170.299988 46.709999 172.730011 C 45.870003 174.730011 45.900002 177.600006 45.800003 179.799988 C 45.550003 185.559998 42.540001 184.799988 41.019997 186.029999 C 42.019997 183.769989 40.510002 181.279999 39.839996 178.910004 C 39.321335 176.615051 39.169449 174.252472 39.389999 171.910004 C 38.919998 172.350006 38.139999 171.910004 37.849998 171.320007 C 37.559998 170.730011 37.449997 170.049988 36.959999 169.640015 C 36.605675 169.39975 36.21357 169.220581 35.800003 169.109985 C 34.059998 168.399994 33.220001 166.380005 33.060001 164.51001 C 33.072876 164.027039 32.962761 163.548706 32.740002 163.119995 C 32.57 162.850006 32.299999 162.660004 32.119999 162.410004 C 31.721722 161.585571 31.721722 160.62442 32.119999 159.799988 L 35.120003 149.950012 C 35.292664 149.273193 35.55854 148.623627 35.910004 148.019989 C 36.498436 147.330719 37.030174 146.595001 37.5 145.820007 C 37.900002 144.820007 37.739998 143.75 38.220001 142.820007 C 38.480003 142.320007 38.910004 141.929993 39.220001 141.429993 C 39.529999 140.929993 40.220001 140.880005 40.419998 140.279999 C 41.211075 138.08374 42.971169 136.375305 45.190002 135.649994 C 47.556015 134.707733 50.057724 134.150665 52.599998 134 C 55.669998 134 57.940002 136.070007 60.540001 137.350006 C 60.375549 136.61142 60.34507 135.849335 60.449997 135.100006 C 60.839996 133.220001 63.160004 132.769989 64.769997 133.200012 C 65.419998 133.380005 67.269997 135.369995 67.309998 136.540009 L 67.309998 136.450012 C 67.352348 136.19696 67.409103 135.946564 67.480003 135.700012 L 67.480003 135.809998 C 67.480003 135.640015 67.589996 135.480011 67.650002 135.320007 C 67.919998 134.559998 68.290001 133.820007 68.650002 133.100006 C 69.389999 131.519989 69.93 129.540009 68.919998 128.100006 C 68.026497 126.964233 66.559883 126.442963 65.150002 126.76001 C 63.932747 126.928986 62.750832 127.293701 61.650002 127.839996 C 60.970001 128.160004 60.099998 129.170013 59.360001 129.220001 C 56.169998 129.440002 53.120003 127.910004 49.900002 127.959991 C 47.389954 128.001495 44.898476 128.398804 42.5 129.140015 C 40.5 129.76001 38.5 130.679993 36.360001 130.140015 C 35.040001 129.820007 34.080002 128.730011 32.91 128.059998 C 30.697433 126.802704 27.922436 127.143402 26.079727 128.89859 C 24.237019 130.653778 23.761784 133.408905 24.91 135.679993 C 26.116001 137.620148 28.032181 139.012421 30.25 139.559998 C 28.56118 139.385864 26.956062 138.737549 25.619999 137.690002 C 25.512215 137.608795 25.408741 137.522003 25.310001 137.429993 C 20.41 138.119995 11.470001 141.429993 7.439999 146.269989 C 8.220001 149.399994 9.119999 152.440002 10.150002 155.369995 C 14.075104 166.9039 20.408569 177.471039 28.73 186.369995 C 32.210575 190.041138 36.038437 193.366669 40.160004 196.299988 C 40.532043 196.136261 40.870964 195.905792 41.160004 195.619995 C 41.900002 194.769989 41.709999 193.470001 42.160004 192.429993 C 42.650002 191.220001 43.889999 190.519989 44.82 189.600006 C 45.830154 188.510803 46.576073 187.203735 47 185.779999 C 48.123154 182.751312 49.78302 179.94986 51.900002 177.51001 L 52.010002 177.390015 L 52.010002 177.339996 C 52.309891 177.026337 52.641685 176.744812 53 176.5 L 53.120003 176.410004 C 54.443047 175.542755 55.914108 174.925842 57.459999 174.589996 C 59.459999 173.980011 61.260002 172.809998 63.300003 172.399994 C 65.339996 171.98999 67.769997 172.450012 69.980003 172.100006 C 70.818184 171.966156 71.633026 171.713623 72.400002 171.350006 C 74.081856 170.489502 75.532516 169.237732 76.629997 167.700012 C 77.459579 166.533173 78.132019 165.262268 78.629997 163.920013 C 77.589996 165 75 165.380005 73.800003 165.48999 Z"/>
        <path id="path1" fill="none" stroke="none" d="M 55.019997 194.329987 L 55.019997 194.329987 L 54.940002 194.269989 L 55.019997 194.329987 Z"/>
        <path id="path2" fill="none" stroke="none" d="M 66.029999 189.279999 L 66.029999 189.279999 L 66.029999 189.279999 L 66.029999 189.279999 Z"/>
        <path id="path3" fill="#d5e3a0" stroke="none" d="M 115.679993 140.730011 C 115.869995 140.380005 116.080002 140.040009 116.279999 139.730011 C 116.080002 140 115.869995 140.380005 115.679993 140.730011 Z"/>
        <path id="path4" fill="#d5e3a0" stroke="none" d="M 144.410004 138.700012 C 144.17627 138.591339 143.965744 138.438538 143.789993 138.25 C 143.965744 138.438538 144.17627 138.591339 144.410004 138.700012 Z"/>
        <path id="path5" fill="#d5e3a0" stroke="none" d="M 143.600006 138 L 143.789993 138.230011 Z"/>
        <path id="path6" fill="#d5e3a0" stroke="none" d="M 144.929993 138.799988 L 144.929993 138.799988 C 144.750824 138.813995 144.571198 138.779449 144.410004 138.700012 C 144.571198 138.779449 144.750824 138.813995 144.929993 138.799988 Z"/>
        <path id="path7" fill="#bd4986" stroke="none" d="M 107 168.350006 C 106.789993 168.230011 106.589996 168.100006 106.389999 167.970001 C 106.584991 168.109589 106.788742 168.236511 107 168.350006 Z"/>
        <path id="path8" fill="#bd4986" stroke="none" d="M 144.929993 138.799988 L 144.929993 138.799988 L 144.929993 138.799988 L 144.929993 138.799988 Z"/>
        <path id="path9" fill="#bd4986" stroke="none" d="M 142.839996 136.51001 C 142.759995 136.25 142.669998 135.959991 142.600006 135.640015 C 142.478165 135.144775 142.300354 134.665009 142.070007 134.209991 C 142.300354 134.665009 142.478165 135.144775 142.600006 135.640015 C 142.669998 136 142.759995 136.25 142.839996 136.51001 Z"/>
        <path id="path10" fill="#bd4986" stroke="none" d="M 116.279999 139.709991 C 116.32692 139.642273 116.370316 139.572205 116.410004 139.5 C 116.370316 139.572205 116.32692 139.642273 116.279999 139.709991 Z"/>
        <path id="path11" fill="#cbc462" stroke="none" d="M 107.050003 168.369995 L 107.050003 168.369995 Z"/>
        <path id="path12" fill="#944e10" stroke="none" d="M 155 190.51001 C 155.515671 189.126709 155.75354 187.655304 155.699997 186.179993 C 155.559998 186.369995 155.399994 186.549988 155.240005 186.730011 C 153.643143 188.419952 151.659576 189.696564 149.460007 190.450012 L 148 191 L 147.149994 189.730011 C 145.529419 187.287903 144.140076 184.700043 143 182 C 142.617004 182.586304 142.156128 183.117828 141.630005 183.579987 C 140.704346 184.334961 139.698257 184.985565 138.630005 185.519989 L 138.020004 185.850006 L 137.339996 185.720001 C 132.751053 184.854431 128.789536 181.98233 126.539993 177.890015 C 126.167206 177.19577 125.833359 176.481354 125.539993 175.75 C 124.600006 178.339996 123.669998 180.51001 123.309998 181.329987 C 121.860001 184.600006 116.720001 203.640015 114.860001 210.700012 L 114.770004 210.970001 C 114.745132 211.045319 114.715073 211.118835 114.679993 211.190002 C 120.955307 210.142639 127.109543 208.46759 133.050003 206.190002 C 136.445404 204.874786 139.752289 203.341614 142.949997 201.600006 C 144.529999 200.73999 146.089996 199.820007 147.610001 198.850006 C 150.860001 196.75 153.740005 194 155 190.51001 Z"/>
        <path id="path13" fill="#ffffff" stroke="none" d="M 163.910004 185 C 163.436661 185.526672 162.956665 186.056671 162.470001 186.589996 C 162.963333 186.049988 163.443344 185.519989 163.910004 185 Z"/>
        <path id="path14" fill="#ffffff" stroke="none" d="M 167 181.23999 C 166.559998 181.809998 166.100006 182.380005 165.639999 182.929993 C 166.130005 182.380005 166.589996 181.809998 167 181.23999 Z"/>
        <path id="path15" fill="#ffffff" stroke="none" d="M 168.649994 179.119995 C 168.229996 179.690002 167.789993 180.26001 167.360001 180.829987 C 167.789993 180.26001 168.229996 179.690002 168.649994 179.119995 Z"/>
        <path id="path16" fill="#ffffff" stroke="none" d="M 161 188.109985 C 160.539993 188.570007 160.070007 189.029999 159.589996 189.480011 C 160.050003 189 160.520004 188.570007 161 188.109985 Z"/>
        <path id="path17" fill="#ffffff" stroke="none" d="M 165.639999 183 C 165.190002 183.540009 164.729996 184.070007 164.270004 184.600006 C 164.729996 184 165.190002 183.51001 165.639999 183 Z"/>
        <path id="path18" fill="#ffffff" stroke="none" d="M 164.270004 184.570007 L 163.910004 184.980011 Z"/>
        <path id="path19" fill="#ffffff" stroke="none" d="M 165.669998 182.929993 L 165.669998 182.929993 Z"/>
        <path id="path20" fill="#ffffff" stroke="none" d="M 168.669998 179.089996 L 168.669998 179.089996 Z"/>
        <path id="path21" fill="#ffffff" stroke="none" d="M 167.360001 180.829987 L 167.029999 181.23999 Z"/>
        <path id="path22" fill="#ffffff" stroke="none" d="M 162.470001 186.570007 C 161.979996 187.089996 161.470001 187.570007 160.979996 188.109985 C 161.479996 187.600006 162 187.089996 162.470001 186.570007 Z"/>
        <path id="path23" fill="#ffffff" stroke="none" d="M 156.300003 192.429993 L 156.300003 192.429993 L 156.300003 192.429993 L 156.300003 192.429993 Z"/>
        <path id="path24" fill="#ffffff" stroke="none" d="M 159.570007 189.480011 L 159.460007 189.589996 Z"/>
        <path id="path25" fill="#71a850" stroke="none" d="M 187.389999 72 L 187.039993 70.839996 L 187.039993 70.839996 C 186.039993 68.029999 184.860001 65.309998 182.649994 63.47998 C 180.923843 62.268677 178.786728 61.793762 176.710007 62.160004 C 172.674454 62.578491 169.003082 64.681091 166.600006 67.950012 C 165.194565 69.989258 164.086777 72.218323 163.309998 74.570007 C 161.744125 78.560059 159.597641 82.297028 156.940002 85.660004 C 153.699997 89.76001 148.440002 93.23999 143.149994 93.769989 C 142.770004 94.26001 142.389999 94.709991 142.059998 95.109985 C 139.490005 98.179993 138.009995 102.109985 134.600006 104.390015 C 132.967377 105.422882 131.145187 106.119781 129.240005 106.440002 C 128.541656 106.565186 127.866974 106.797974 127.240005 107.130005 L 127.240005 115.220001 C 127.240005 116.950012 127.169998 118.609985 127.059998 120.220001 C 127.20845 120.209717 127.355682 120.186279 127.5 120.149994 C 131.690002 118.799988 137.229996 114.220001 139.029999 112.149994 C 139.279999 111.869995 139.520004 111.570007 139.770004 111.279999 C 141.110001 109.660004 142.389999 108.130005 144.100006 107.940002 C 144.753815 107.899292 145.41011 107.949768 146.050003 108.089996 C 147.144791 108.349854 148.285202 108.349854 149.380005 108.089996 C 150.706085 107.551392 151.846069 106.637329 152.660004 105.459991 L 152.75 105.350006 C 154.676102 102.864868 157.110291 100.819336 159.889999 99.350006 C 162.566742 97.953125 165.710312 97.756866 168.539993 98.809998 C 170.850006 99.809998 172.649994 101.809998 174.449997 104 C 175.850006 105.700012 177.449997 107.459991 178.929993 109.160004 C 181.587112 112.022766 184.087433 115.02713 186.419998 118.160004 L 187.309998 119.420013 C 187.309998 118.019989 187.380005 116.609985 187.380005 115.190002 Z"/>
        <path id="path26" fill="#cbe880" stroke="none" d="M 142.800003 138.179993 C 142.169998 137.450012 141.800003 135.940002 141.160004 135.179993 C 140.343262 134.284393 139.375137 133.539703 138.300003 132.980011 C 132.389999 130.299988 127.169998 133.200012 123.169998 137.850006 C 119.887482 141.808044 117.962967 146.715698 117.679993 151.850006 C 117.675064 151.883148 117.675064 151.91684 117.679993 151.950012 C 118.823975 152.822571 120.015823 153.630493 121.25 154.369995 C 122.428696 155.064514 123.688095 155.611938 125 156 C 124.880005 147.929993 126.490005 139.290009 133.600006 135.649994 C 135.960007 134.440002 139.449997 134.529999 141.089996 136.920013 C 141.434891 137.498077 141.738968 138.099548 142 138.720001 C 142.198502 139.157013 142.517685 139.528229 142.919998 139.790009 C 143.523026 140.103455 144.265625 139.903687 144.630005 139.329987 C 144.720474 139.154572 144.820633 138.984314 144.929993 138.820007 C 144.199997 139.429993 143.440002 138.910004 142.800003 138.179993 Z"/>
        <path id="path27" fill="#bd4986" stroke="none" d="M 112.679993 148.450012 L 112.679993 148.450012 L 112.679993 148.450012 L 112.679993 148.450012 Z"/>
        <path id="path28" fill="#cbe880" stroke="none" d="M 125 156.459991 C 123.175293 156.494873 121.355499 156.258972 119.600006 155.76001 C 118.940002 155.570007 118.289993 155.359985 117.600006 155.130005 C 117.700592 157.019745 117.927765 158.900635 118.279999 160.76001 C 118.725784 162.556915 118.194077 164.455841 116.880005 165.76001 C 116.880005 165.76001 112.729996 169.76001 108.580002 168.970001 C 108.028885 168.856201 107.496841 168.664246 107 168.399994 L 107 168.399994 C 106.788742 168.28653 106.584991 168.159607 106.389999 168.019989 L 105.949997 167.720001 C 105.620895 169.605896 105.747757 171.543152 106.320007 173.369995 C 107.889999 179.579987 110.839996 185.200012 111.740005 191.609985 C 112.808456 198.288788 112.37114 205.121918 110.460007 211.609985 C 110.460007 211.609985 111.460007 213.070007 112.630005 210.100006 C 112.630005 210.100006 119.369995 184.529999 121.199997 180.390015 C 121.199997 180.390015 126.25 168.869995 125.710007 164.950012 C 125.317978 162.135132 125.080963 159.300873 125 156.459991 Z"/>
        <path id="path29" fill="#c92c99" stroke="none" d="M 118.330002 160.76001 C 117.977768 158.900635 117.750595 157.019745 117.649994 155.130005 C 115.669235 154.436584 113.754868 153.566406 111.929993 152.529999 C 111.860001 153.049988 111.800003 153.579987 111.75 154.100006 C 111.745041 154.179932 111.745041 154.260071 111.75 154.339996 C 111.75 154.880005 111.660004 155.410004 111.630005 155.950012 C 111.630005 156.130005 111.630005 156.640015 111.630005 156.480011 C 111.380005 155.869995 111.130005 155.299988 110.860001 154.76001 C 110.025696 152.949646 108.878052 151.300964 107.470001 149.890015 C 106.898926 149.590149 106.303467 149.339233 105.690002 149.140015 C 105.132278 148.95285 104.555344 148.828735 103.970001 148.769989 C 100.039993 148.390015 99.229996 152.290009 99.970001 155.609985 C 100.970001 160.079987 104.460007 164.769989 107.110001 168.359985 L 107.110001 168.359985 C 107.606842 168.624268 108.138885 168.816193 108.690002 168.929993 C 112.839996 169.76001 116.990005 165.720001 116.990005 165.720001 C 118.268677 164.412109 118.776108 162.533875 118.330002 160.76001 Z"/>
        <path id="path30" fill="#c92c99" stroke="none" d="M 144.410004 138.700012 C 144.17627 138.591339 143.965744 138.438538 143.789993 138.25 L 143.600006 138.019989 C 143.268539 137.559937 143.012024 137.050293 142.839996 136.51001 C 142.759995 136.25 142.669998 135.959991 142.600006 135.640015 C 142.478165 135.144775 142.300354 134.665009 142.070007 134.209991 L 141.830002 133.779999 C 141.660385 133.50885 141.469803 133.251404 141.259995 133.01001 C 141.054489 132.769531 140.830475 132.545502 140.589996 132.339996 C 140.105331 131.920197 139.571411 131.560913 139 131.269989 C 138.707596 131.117249 138.40715 130.980377 138.100006 130.859985 C 137.789993 130.73999 137.470001 130.630005 137.149994 130.529999 C 136.170914 130.246796 135.165878 130.062561 134.149994 129.980011 L 133.149994 129.920013 L 132.639999 129.920013 C 132.309998 129.920013 131.990005 129.920013 131.639999 129.920013 L 130.699997 129.98999 L 129.809998 130.100006 L 129.389999 130.170013 C 124.334671 131.181061 119.894409 134.173645 117.059998 138.480011 C 116.830002 138.809998 116.610001 139.149994 116.389999 139.480011 C 116.350311 139.552185 116.306931 139.622284 116.259995 139.690002 C 116.059998 140.019989 115.850006 140.359985 115.660004 140.690002 C 115.660004 140.75 115.589996 140.809998 115.559998 140.880005 C 115.380005 141.209991 115.199997 141.540009 115.029999 141.880005 C 115.015244 141.917511 114.99855 141.954224 114.979996 141.98999 C 114.800003 142.359985 114.630005 142.720001 114.470001 143.089996 C 114.470001 143.170013 114.399994 143.25 114.369995 143.320007 C 114.210007 143.690002 114.050003 144.059998 113.910004 144.440002 C 113.910004 144.440002 113.910004 144.529999 113.860001 144.570007 C 113.720001 144.929993 113.589996 145.290009 113.470001 145.660004 L 113.410004 145.829987 C 113.279999 146.209991 113.160004 146.600006 113.050003 146.98999 C 113.031219 147.064697 113.007843 147.138184 112.979996 147.209991 C 112.869995 147.609985 112.759995 148.01001 112.660004 148.410004 L 112.660004 148.410004 C 113.740005 149.220001 114.740005 149.980011 115.610001 150.529999 C 116.309998 150.970001 116.979996 151.450012 117.610001 151.929993 C 117.605072 151.896851 117.605072 151.863159 117.610001 151.829987 C 117.892975 146.695709 119.817474 141.788055 123.100006 137.829987 C 127.100006 133.179993 132.320007 130.279999 138.229996 132.959991 C 139.30513 133.519684 140.273254 134.264404 141.089996 135.160004 C 141.729996 135.880005 142.089996 137.390015 142.729996 138.160004 C 143.369995 138.929993 144.130005 139.410004 144.860001 138.779999 L 144.860001 138.779999 C 144.705841 138.788422 144.551819 138.761047 144.410004 138.700012 Z"/>
        <path id="path31" fill="#cab44b" stroke="none" d="M 125 156 C 123.686493 155.625397 122.423767 155.0914 121.240005 154.410004 C 120.005829 153.670502 118.813965 152.862579 117.669998 151.98999 C 117 151.51001 116.330002 150.98999 115.669998 150.589996 C 114.800003 150.040009 113.800003 149.279999 112.720001 148.470001 C 109.139999 145.769989 104.669998 142.470001 100.839996 144.160004 C 97.510002 145.630005 96.449997 149.829987 96.900002 153.299988 C 97.725899 159.173035 101.041809 164.405609 106 167.660004 C 106.149994 167.76001 106.289993 167.869995 106.449997 167.970001 C 106.610001 168.070007 106.850006 168.230011 107.059998 168.350006 L 107.059998 168.350006 C 104.410004 164.76001 100.889999 160.070007 99.919998 155.600006 C 99.199997 152.279999 100.009995 148.380005 103.919998 148.76001 C 104.505341 148.818756 105.082275 148.942841 105.639999 149.130005 C 106.253464 149.329224 106.848938 149.580139 107.419998 149.880005 C 108.610001 150.480011 109.759995 151.220001 110.839996 151.880005 C 111.199997 152.089996 111.550003 152.309998 111.919998 152.51001 C 113.744858 153.546417 115.659241 154.416565 117.639999 155.109985 C 118.289993 155.339996 118.940002 155.549988 119.639999 155.73999 C 121.395508 156.238983 123.215286 156.474884 125.039993 156.440002 C 125.940002 156.440002 126.889999 156.440002 128.039993 156.440002 C 127.010941 156.437958 125.987396 156.289825 125 156 Z"/>
        <path id="path32" fill="#ffd040" stroke="none" d="M 117.449997 171.309998 C 117.480164 171.111145 117.480164 170.908875 117.449997 170.709991 C 117.381378 170.487732 117.276642 170.278259 117.139999 170.089996 C 116.105011 168.45047 115.442749 166.603638 115.199997 164.679993 C 115.369995 164.049988 115.529999 163.410004 115.539993 163.339996 C 115.699799 162.409058 115.750153 161.462646 115.690002 160.519989 C 115.593765 159.710052 115.335281 158.927826 114.929993 158.220001 C 114.656128 157.552063 114.121613 157.02475 113.449997 156.76001 C 112.800003 156.549988 112.320007 157.01001 112.449997 157.700012 C 112.567841 158.158203 112.753204 158.596344 113 159 C 113.411072 159.850769 113.489532 160.824402 113.220001 161.730011 C 113.029999 162.380005 112.669998 162.959991 112.419998 163.579987 C 111.849777 165.437225 111.849777 167.422791 112.419998 169.279999 C 112.944031 171.429169 113.612213 173.540619 114.419998 175.600006 C 114.667328 176.458984 115.140427 177.235931 115.789993 177.850006 C 116.46582 178.459381 117.501663 178.428528 118.139999 177.779999 C 118.770004 176.970001 118.300003 175.779999 117.970001 174.779999 C 117.581345 173.665985 117.404968 172.489014 117.449997 171.309998 Z"/>
        <path id="path33" fill="#ffd040" stroke="none" d="M 122.860001 167.769989 C 122.520813 167.171936 122.249161 166.538055 122.050003 165.880005 C 121.893021 165.396057 121.685196 164.930115 121.429993 164.48999 C 121.169998 163.880005 121.429993 163.109985 120.929993 162.579987 C 120.776108 162.368713 120.489288 162.304504 120.259995 162.429993 C 120.029999 162.609985 120.020004 163.299988 119.610001 163.149994 C 119.41098 163.066528 119.265335 162.891022 119.220001 162.679993 C 119.190033 162.247192 119.190033 161.812805 119.220001 161.380005 C 119.23735 160.59729 119.143066 159.816101 118.940002 159.059998 C 118.600006 158.059998 118.139999 156.769989 116.889999 156.630005 C 115.889999 156.519989 116.089996 157.630005 116.229996 158.25 C 116.570007 159.820007 117.089996 161.350006 117.380005 162.929993 C 117.759995 164.929993 117.690002 167.040009 117.970001 169.079987 C 118.320419 171.41098 118.797791 173.721069 119.399994 176 C 119.460785 176.376526 119.635254 176.725464 119.899994 177 C 120.319305 177.283813 120.876862 177.251007 121.259995 176.920013 C 121.638535 176.584686 121.930191 176.162659 122.110001 175.690002 C 123.259995 173.209991 124 170.26001 122.860001 167.769989 Z"/>
        <path id="path34" fill="#c92c99" stroke="none" d="M 119.179993 162.769989 C 119.028503 162.507568 118.926788 162.219391 118.880005 161.920013 C 118.850906 161.695496 118.930618 161.470551 119.094604 161.314453 C 119.258606 161.158386 119.487198 161.089844 119.710007 161.130005 C 120.144302 161.344177 120.495804 161.695679 120.710007 162.130005 C 121.0905 162.644104 121.381271 163.218872 121.570007 163.829987 C 121.651047 164.158295 121.704575 164.492798 121.729996 164.829987 C 121.880005 166.269989 121.929993 167.910004 121.229996 168.920013 C 121.083298 169.19928 120.795441 169.375824 120.479996 169.380005 C 120.139999 169.329987 119.869995 168.920013 119.740005 168.470001 C 119.63179 168.012451 119.554947 167.548035 119.509995 167.079987 C 119.345459 166.425781 119.258194 165.754547 119.25 165.079987 C 119.458099 164.320313 119.433716 163.515686 119.179993 162.769989 Z"/>
        <path id="path35" fill="#c92c99" stroke="none" d="M 117.529999 162.619995 C 117.643753 162.261597 117.67453 161.88205 117.619995 161.51001 C 117.489929 161.213348 117.233582 160.990723 116.921616 160.903534 C 116.609665 160.816345 116.27504 160.873779 116.009995 161.059998 C 115.487488 161.469696 115.106339 162.032684 114.919998 162.670013 C 114.563141 163.415344 114.359131 164.224579 114.320007 165.049988 C 114.341812 165.479187 114.408859 165.904877 114.520004 166.320007 C 114.910004 168.019989 115.520004 169.890015 117.050003 170.660004 C 117.45668 170.89856 117.949844 170.939056 118.389999 170.769989 C 118.881485 170.470001 119.169312 169.925049 119.139999 169.350006 C 119.115631 168.776215 119.031845 168.206512 118.889999 167.649994 C 118.877228 166.822845 118.721603 166.00415 118.429993 165.230011 C 118 164.299988 117.320007 163.820007 117.529999 162.619995 Z"/>
        <path id="path36" fill="#403f4a" stroke="none" d="M 53.800003 140.75 L 53.800003 140.75 L 53.800003 140.75 L 53.800003 140.75 Z"/>
        <path id="path37" fill="#f8df8d" stroke="none" d="M 36.43 53.820007 C 36.43 53.820007 37.43 49.130005 37.529999 48.869995 C 38.671608 45.046814 40.460915 41.447876 42.82 38.22998 C 45.251694 34.959412 48.341331 32.234253 51.889999 30.22998 C 53.963943 29.07486 56.165466 28.165405 58.449997 27.52002 C 59.763924 27.141968 61.099754 26.844757 62.449997 26.630005 C 64.279999 26.320007 64.599998 27.220001 64.110001 28.970001 C 63.350502 32.018677 61.89975 34.851776 59.870003 37.25 C 57.160004 40.399994 53.809998 42.25 50.400002 44.450012 C 50.400002 44.450012 42.07 49.049988 39.940002 53.839996 Z"/>
        <path id="path38" fill="#f8df8d" stroke="none" d="M 31.490002 53.820007 C 31.490002 53.820007 30.490002 49.130005 30.389999 48.869995 C 29.252487 45.045166 27.462845 41.445618 25.099998 38.22998 C 22.672489 34.955566 19.581963 32.229614 16.029999 30.22998 C 13.960377 29.073181 11.761963 28.163605 9.48 27.52002 C 8.165707 27.143433 6.829964 26.846252 5.48 26.630005 C 3.650002 26.320007 3.330002 27.220001 3.82 28.970001 C 4.587471 32.0177 6.041126 34.849762 8.07 37.25 C 10.779999 40.399994 14.130001 42.25 17.540001 44.450012 C 17.540001 44.450012 25.860001 49.049988 27.990002 53.839996 Z"/>
        <path id="path39" fill="#ae841f" stroke="none" d="M 57.470001 11.210022 C 57.446335 11.173096 57.411201 11.144989 57.370003 11.130005 C 56.862267 10.94455 56.301987 10.966125 55.809998 11.190002 C 55.919998 10.850006 56 10.429993 55.730003 10.190002 C 55.681847 10.137634 55.609497 10.114777 55.540001 10.130005 C 55.480003 10.130005 55.449997 10.210022 55.419998 10.27002 C 55.190002 10.710022 54.970001 11.149994 54.720001 11.589996 C 54.720001 11.26001 54.720001 10.76001 54.300003 10.589996 C 53.980003 10.880005 54 11.399994 53.730003 11.73999 C 53.620003 11.880005 53.419998 11.940002 53.300003 12.080017 C 52.772346 12.727966 52.33503 13.444489 52 14.210022 C 52 13.97998 52 13.75 51.919998 13.52002 C 51.63121 11.544678 51.097084 9.613098 50.330002 7.77002 C 47.022049 8.808716 44.154411 10.919861 42.18 13.77002 C 41.617241 12.893738 41.138451 11.966248 40.75 11 C 40.492599 10.399658 40.359909 9.753235 40.360001 9.100006 C 40.358414 8.43866 40.66996 7.815552 41.199997 7.419983 C 41.605461 7.212189 42.022858 7.028534 42.449997 6.869995 C 42.88237 6.697113 43.153282 6.264465 43.120003 5.799988 C 42.980003 5.23999 42.239998 5.100006 41.75 5.080017 C 42.251579 4.957611 42.682724 4.638367 42.946136 4.194336 C 43.209557 3.750275 43.283035 3.218872 43.150002 2.720001 C 43.138695 2.642365 43.090149 2.575134 43.019997 2.539978 C 42.95993 2.51123 42.890068 2.51123 42.830002 2.539978 C 42.09082 2.871887 41.517326 3.488647 41.239998 4.25 C 40.989998 3.779999 40.620003 3.25 40.080002 3.25 C 39.967789 3.240417 39.859657 3.294495 39.800003 3.390015 C 39.764969 3.476593 39.764969 3.573425 39.800003 3.660004 C 40.029999 4.369995 40.279999 5.080017 40.480003 5.799988 C 40.129997 5.470001 39.550003 4.960022 39.019997 5.23999 C 39.019997 5.890015 39.57 6.419983 39.639999 7.070007 C 39.639999 7.339996 39.540001 7.609985 39.559998 7.890015 C 39.731766 10.178345 40.493141 12.38324 41.769997 14.289978 C 40.884926 15.676758 40.236115 17.200806 39.849998 18.799988 C 39.660568 19.559113 39.559891 20.337646 39.550003 21.119995 C 39.571228 21.859589 39.658234 22.595825 39.809998 23.320007 C 40.280502 25.785583 40.997437 28.197693 41.949997 30.52002 C 43.18 30.690002 44.129997 29.52002 44.949997 28.669983 C 46.949997 26.609985 50.290001 25.130005 51.559998 22.51001 C 52.059998 21.51001 51.919998 19.890015 52 18.76001 C 52.098946 17.508606 52.098946 16.251373 52 15 C 52.110001 14.700012 52.230003 14.399994 52.370003 14.109985 C 52.532669 13.709412 52.774101 13.345551 53.080002 13.039978 C 53.395248 12.726013 53.839424 12.577972 54.279999 12.640015 C 54.57 12.700012 54.830002 12.880005 55.120003 12.970001 C 55.405746 13.089661 55.736008 13.013153 55.940002 12.779999 C 56.139999 12.450012 55.860001 12.039978 55.639999 11.779999 C 55.933624 11.95816 56.286522 12.010864 56.619377 11.926208 C 56.952232 11.841614 57.237122 11.62677 57.410004 11.330017 C 57.449112 11.302795 57.471718 11.257599 57.470001 11.210022 Z"/>
        <path id="path40" fill="#ae841f" stroke="none" d="M 17.75 7.77002 C 16.981102 9.611725 16.450153 11.543976 16.169998 13.52002 C 15.973846 14.884033 15.896889 16.262573 15.939999 17.640015 C 14.96846 16.367981 14.190063 14.959442 13.630001 13.460022 C 13.377228 12.858215 13.244736 12.212708 13.240002 11.559998 C 13.237526 10.896088 13.553646 10.271301 14.09 9.880005 C 14.493156 9.67453 14.907089 9.490936 15.330002 9.330017 C 15.778698 9.177185 16.058483 8.730377 16 8.26001 C 15.860001 7.700012 15.119999 7.570007 14.630001 7.549988 C 15.661209 7.27182 16.273598 6.212433 16 5.179993 C 16 5.109985 15.939999 5.029999 15.869999 5 C 15.805607 4.975372 15.734394 4.975372 15.669998 5 C 14.93082 5.331909 14.357327 5.948669 14.080002 6.710022 C 13.830002 6.23999 13.459999 5.710022 12.919998 5.710022 C 12.810291 5.699463 12.704601 5.754272 12.650002 5.850006 C 12.620281 5.937561 12.620281 6.032471 12.650002 6.119995 C 12.880001 6.830017 13.130001 7.539978 13.34 8.26001 C 12.98 7.929993 12.400002 7.419983 11.869999 7.700012 C 11.869999 8.350006 12.419998 8.880005 12.5 9.529999 C 12.5 9.799988 12.389999 10.070007 12.419998 10.350006 C 12.679344 13.414459 13.937 16.309174 16 18.589996 C 16.004982 18.653229 16.004982 18.716766 16 18.779999 C 16.09 19.910004 15.939999 21.5 16.439999 22.529999 C 17.720001 25.149994 21.099998 26.630005 23.049999 28.690002 C 23.900002 29.580017 24.849998 30.690002 26.049999 30.539978 C 27.01162 28.220886 27.728828 25.807861 28.189999 23.339996 C 28.346653 22.616638 28.433716 21.879944 28.450001 21.140015 C 28.445049 20.3573 28.344299 19.578186 28.150002 18.820007 C 26.836018 13.58136 22.899475 9.398773 17.75 7.77002 Z"/>
        <path id="path41" fill="#cab44b" stroke="none" d="M 8.639999 13.539978 C 8.842003 13.579041 9.025085 13.684662 9.16 13.839996 C 9.970001 14.630005 10.849998 15.359985 11.650002 16.160004 C 12.759998 17.029999 13.889999 17.859985 15.029999 18.679993 L 15.029999 18.679993 C 18.361591 20.917664 21.404549 23.557556 24.09 26.539978 C 25.45232 28.140869 26.611137 29.904297 27.540001 31.789978 C 28.00565 32.76123 28.403271 33.763672 28.73 34.789978 C 29.124386 35.817017 29.373455 36.894104 29.470001 37.98999 L 29.470001 46.679993 L 24 45.369995 C 23 44.160004 22.099998 42.910004 21.189999 41.660004 C 19.080002 38.76001 17.080002 35.789978 15.189999 32.720001 C 13.288326 29.575195 11.652641 26.2771 10.299999 22.859985 C 10.049999 22 6.810001 13.460022 8.639999 13.539978 Z"/>
        <path id="path42" fill="#cab44b" stroke="none" d="M 59.32 13.539978 C 59.116257 13.57428 58.931671 13.680786 58.800003 13.839996 C 57.989998 14.630005 57.110001 15.359985 56.309998 16.160004 C 55.199997 17.029999 54.07 17.859985 52.93 18.679993 L 52.93 18.679993 C 49.598412 20.917664 46.55545 23.557556 43.870003 26.539978 C 42.504333 28.138367 41.34523 29.902222 40.419998 31.789978 C 39.950089 32.759369 39.552345 33.762085 39.230003 34.789978 C 38.835617 35.817017 38.586548 36.894104 38.489998 37.98999 L 38.489998 46.679993 L 43.949997 45.369995 C 44.949997 44.160004 45.849998 42.910004 46.760002 41.660004 C 48.870003 38.76001 50.870003 35.789978 52.760002 32.720001 C 54.657646 29.572998 56.293159 26.275208 57.650002 22.859985 C 57.910004 22 61.150002 13.460022 59.32 13.539978 Z"/>
        <path id="path43" fill="#cab44b" stroke="none" d="M 37.540001 51.929993 C 39.495567 47.018616 40.812988 41.876648 41.459999 36.630005 C 42.660004 27.700012 42 18.359985 38.120003 10.119995 C 37.5 8.799988 36.809998 7.51001 36.07 6.26001 C 35.790001 5.799988 34.650002 3.399994 33.950001 3.630005 C 33.736671 3.728149 33.561138 3.893127 33.450001 4.100006 C 31.003067 7.621826 29.107918 11.496399 27.830002 15.589996 C 26.647289 19.662781 26.031498 23.879089 26 28.119995 C 25.974506 30.965973 26.15498 33.810059 26.540001 36.630005 C 27.178772 41.877136 28.492989 47.019745 30.450001 51.929993"/>
        <path id="path44" fill="#ffd040" stroke="none" d="M 35.790001 55.600006 C 35.790001 56.339996 34.949997 56.72998 34.199997 56.75 C 27.200001 56.919983 22.919998 49.98999 20.599998 44.330017 C 18.860001 40.070007 17.130001 34.880005 16.959999 30.27002 C 16.826691 29.480164 16.871101 28.670532 17.09 27.899994 C 17.619999 26.899994 18.959999 27.609985 19.610001 28.089996 C 23.011501 30.529175 26.066071 33.418884 28.689999 36.679993 C 31.349998 40.130005 32.57 43.859985 34.07 47.869995 C 34.953987 50.367584 35.531548 52.963226 35.790001 55.600006 Z"/>
        <path id="path45" fill="#ffd040" stroke="none" d="M 32.240002 55.600006 C 32.240002 56.339996 33.09 56.72998 33.84 56.75 C 40.839996 56.919983 45.120003 49.98999 47.440002 44.330017 C 49.18 40.070007 50.900002 34.880005 51.07 30.27002 C 51.213287 29.480743 51.168755 28.668854 50.940002 27.899994 C 50.410004 26.899994 49.080002 27.609985 48.43 28.089996 C 45.024117 30.523865 41.968864 33.414246 39.349998 36.679993 C 36.68 40.130005 35.470001 43.859985 33.959999 47.869995 C 33.076012 50.367584 32.498455 52.963226 32.240002 55.600006 Z"/>
        <path id="path46" fill="none" stroke="none" d="M 6.66 66.619995 L 7.189999 66.210022 L 7.189999 66.210022 C 7.004364 66.334656 6.827301 66.471619 6.66 66.619995 Z"/>
        <path id="path47" fill="#8b411f" stroke="none" d="M 60.410004 54.589996 C 59.67984 53.957458 58.819527 53.493164 57.889999 53.22998 C 57.029999 53.029999 56.120003 53.140015 55.230003 53.01001 C 53.839996 52.820007 52.580002 52.059998 51.230003 51.75 C 49.308846 51.400208 47.325844 51.717773 45.610001 52.649994 C 44.479317 53.22876 43.41333 53.925964 42.43 54.72998 L 42.339996 54.72998 C 41.199997 54.890015 40.089996 55.210022 38.949997 55.380005 C 35.010002 55.960022 29.950001 52.48999 26.360001 54.619995 L 26.130001 54.75 C 24.348572 54.218262 22.514336 53.882935 20.66 53.75 C 18.386326 53.585663 16.124744 54.203125 14.25 55.5 C 12.93 56.5 11.959999 57.910004 10.57 58.789978 C 9.689999 59.350006 8.669998 59.669983 7.84 60.299988 C 7.009998 60.929993 6.84 62.440002 5.84 62.960022 C 3.459999 64.179993 3.939999 67.429993 3.84 69.549988 L 3.84 69.549988 C 4.663521 68.440216 5.616974 67.433044 6.68 66.549988 C 6.841171 66.405762 7.011528 66.272156 7.189999 66.149994 L 7.189999 66.149994 C 10.689144 63.673248 14.609619 61.853638 18.759998 60.779999 C 19.59 60.529999 20.43 60.299988 21.27 60.080017 C 21.529999 60 21.799999 59.940002 22.07 59.869995 C 26.426422 58.799805 30.871609 58.130341 35.349998 57.869995 C 38.82 57.649994 42.120003 57.5 45.279999 57.419983 C 46.889999 57.419983 48.459999 57.359985 50 57.350006 C 55 57.350006 59.610001 57.51001 63.900002 57.869995 L 63.900002 57.869995 C 63.940002 55.25 61.849998 55.690002 60.410004 54.589996 Z"/>
        <path id="path48" fill="#71a850" stroke="none" d="M 28 99.799988 L 28.700001 99.700012 C 30.25 99.480011 31.82 99.309998 33.34 99.149994 C 36.293396 98.898163 39.228783 98.467377 42.129997 97.859985 L 42.190002 97.859985 C 43.860001 97.440002 46.989998 97.179993 47.93 95.48999 C 50 91.769989 35.720001 90.48999 34.339996 90.359985 C 29.889999 89.899994 25.43 89.880005 20.970001 89.640015 C 16.907288 89.587219 12.892033 88.759064 9.139999 87.200012 C 8.002762 86.673828 6.923576 86.030334 5.919998 85.279999 C 5.152878 84.69458 4.455036 84.02359 3.84 83.279999 L 3.84 111.519989 L 4.169998 111.029999 C 9.400002 103.450012 19.130001 101.100006 28 99.799988 Z"/>
        <path id="path49" fill="#71a850" stroke="none" d="M 52.699997 66.779999 C 46.939896 66.698151 41.190216 67.295593 35.57 68.559998 C 32.933266 69.16272 30.366188 70.037415 27.91 71.170013 C 26.783257 71.563507 25.84024 72.357056 25.259998 73.399994 C 25.093094 73.855713 25.120621 74.359955 25.336147 74.794769 C 25.55167 75.229614 25.936279 75.556854 26.400002 75.700012 C 28.259998 76.600006 30.400002 76.700012 32.450001 76.98999 C 36.589996 77.589996 40.760002 77.98999 44.910004 78.51001 C 49.059998 79.029999 53.18 79.51001 57.190002 81.25 C 59.804558 82.358002 62.118195 84.071777 63.940002 86.25 L 63.940002 67.25 L 63.879997 67.25 C 60.199997 67 56.449997 66.779999 52.699997 66.779999 Z"/>
        <path id="path50" fill="#cab44b" stroke="none" d="M 17.400002 42.390015 C 12.82 40.77002 7.68 39.440002 4.810001 35.539978 C 3.82288 38.308411 4.033031 41.362854 5.389999 43.970001 C 6.765251 46.550232 8.736542 48.764954 11.139999 50.429993 C 12.718044 51.61438 14.455124 52.570435 16.299999 53.27002 C 19.299999 54.350006 22.540001 54.51001 25.700001 54.929993 C 28.049999 55.23999 30.700001 56.350006 32.990002 56.399994 C 34.82 56.399994 34.589996 54.77002 33.830002 53.48999 C 31.740002 50.01001 27.669998 47.299988 24.18 45.380005 C 22.003082 44.204681 19.735893 43.204834 17.400002 42.390015 Z"/>
        <path id="path51" fill="#cab44b" stroke="none" d="M 50.599998 42.390015 C 55.18 40.77002 60.32 39.440002 63.18 35.539978 C 64.187149 38.315796 63.976547 41.387634 62.599998 44 C 61.227951 46.582458 59.256042 48.797882 56.849998 50.460022 C 55.27491 51.648926 53.537155 52.605377 51.690002 53.299988 C 48.690002 54.380005 45.459999 54.539978 42.300003 54.960022 C 39.949997 55.27002 37.300003 56.380005 35.010002 56.429993 C 33.18 56.429993 33.41 54.799988 34.169998 53.52002 C 36.260002 50.039978 40.32 47.330017 43.82 45.410004 C 45.995079 44.222595 48.262444 43.212646 50.599998 42.390015 Z"/>
        <path id="path52" fill="#5d4d63" stroke="none" d="M 138.059998 65.440002 C 140.75 70.01001 147.949997 77.799988 153.919998 73.160004 C 154.600845 72.59845 155.115936 71.862122 155.410004 71.029999 C 156.398376 68.535278 155.741608 65.689331 153.759995 63.880005 C 152.374741 62.98703 150.860367 62.312469 149.270004 61.880005 C 144.270004 59.880005 141.339996 55.880005 139.160004 51.080017 C 139.009613 50.653717 138.759293 50.269653 138.429993 49.960022 C 137.039993 48.869995 136.229996 52.450012 136 53.309998 C 135.489883 55.189453 135.377487 57.154663 135.669998 59.080017 C 135.944916 61.361023 136.764664 63.542419 138.059998 65.440002 Z"/>
        <path id="path53" fill="#5d4d63" stroke="none" d="M 137.630005 95.140015 C 136.910004 95.98999 133.839996 100.619995 132.740005 102.140015 C 132.67244 102.378632 132.67244 102.631348 132.740005 102.869995 C 133.910004 102.920013 134.740005 102 135.449997 101.160004 C 136.160004 100.320007 139.809998 94.809998 140.589996 93.880005 C 141.130005 93.230011 141.669998 92.570007 142.179993 91.880005 C 141.573898 91.828857 140.986572 91.64447 140.460007 91.339996 C 139.635788 92.691162 138.688416 93.963257 137.630005 95.140015 Z"/>
        <path id="path54" fill="#cab44b" stroke="none" d="M 157.479996 75.799988 C 156.730347 76.897736 155.890793 77.931274 154.970001 78.890015 C 153.305832 80.353973 151.534195 81.691071 149.669998 82.890015 C 147.798218 84.095123 146.296188 85.794403 145.330002 87.799988 C 145.002762 88.426514 145.002762 89.173492 145.330002 89.799988 C 145.652847 90.212585 146.146133 90.455566 146.669998 90.459991 C 146.889282 90.485199 147.110718 90.485199 147.330002 90.459991 C 148.096771 90.291321 148.823517 89.975464 149.470001 89.529999 C 154.713516 86.205719 158.626816 81.149597 160.529999 75.23999 C 160.919998 74.029999 161.660004 71.359985 161.919998 70.049988 L 161.919998 70.049988 C 160.309998 71.399994 158.720001 74.079987 157.479996 75.799988 Z"/>
        <path id="path55" fill="#124734" stroke="none" d="M 187.229996 57.179993 C 184.009995 57.399994 170.339996 58.779999 167.309998 59 C 166.193695 58.141571 164.886688 57.565247 163.5 57.320007 C 160.713196 56.484436 157.692566 57.137634 155.5 59.049988 C 151.720001 62.23999 147.850006 65.529999 145.419998 69.829987 C 144.427185 71.695984 143.578049 73.634918 142.880005 75.630005 L 138.880005 86.130005 C 138.424149 86.969177 138.08757 87.867828 137.880005 88.799988 C 137.811279 89.225403 137.952896 89.657715 138.259995 89.959991 C 137.400772 90.951172 136.615341 92.003998 135.910004 93.109985 C 134.809998 94.910004 133.550003 96.619995 132.419998 98.410004 C 131.740005 99.5 131.059998 100.600006 130.490005 101.73999 C 130.320007 102.089996 129.380005 103.950012 129.970001 104.119995 C 130.12149 104.143707 130.27655 104.115509 130.410004 104.040009 C 131.222763 103.664642 131.937973 103.106842 132.5 102.410004 C 132.588928 102.31131 132.672379 102.207825 132.75 102.100006 C 133.850006 100.619995 136.919998 95.98999 137.639999 95.100006 C 138.687057 93.905701 139.621063 92.616852 140.429993 91.25 C 140.956573 91.554474 141.5439 91.738861 142.149994 91.790009 C 142.2798 91.799988 142.410187 91.799988 142.539993 91.790009 C 144.208923 91.653961 145.832291 91.177521 147.309998 90.390015 C 147.090729 90.415192 146.869278 90.415192 146.649994 90.390015 C 146.126129 90.385559 145.632843 90.142578 145.309998 89.730011 C 144.982773 89.103485 144.982773 88.356506 145.309998 87.730011 C 146.276184 85.724426 147.778214 84.025116 149.649994 82.820007 C 151.514206 81.621063 153.285843 80.283997 154.949997 78.820007 C 155.870789 77.861298 156.710342 76.827728 157.460007 75.730011 C 158.699997 74.01001 160.289993 71.329987 161.869995 69.950012 L 161.869995 69.950012 C 162.28389 68.802795 162.97023 67.773285 163.869995 66.950012 C 165.679993 65.350006 168.729996 63.950012 168.419998 61.140015 C 175.869995 59.350006 188.860001 57.059998 187.229996 57.179993 Z"/>
        <path id="path56" fill="#487629" stroke="none" d="M 150.059998 66.140015 C 148.210007 65.309998 146.059998 65.350006 144.059998 65.140015 C 137.570007 64.390015 132.770004 60.600006 128.639999 55.529999 C 128.330643 55.071655 127.915665 54.694397 127.429993 54.429993 C 125.429993 53.580017 125.600006 58.089996 125.600006 59.179993 C 125.58786 61.588074 126.078308 63.972229 127.039993 66.179993 C 128.084854 68.824188 129.751984 71.177368 131.899994 73.040009 C 134.660202 75.722382 137.904221 77.856781 141.460007 79.329987 C 141.392014 79.589355 141.305115 79.843353 141.199997 80.089996 C 140.660004 81.019989 140.199997 82 139.770004 82.970001 C 139.312592 83.941376 138.794907 84.883209 138.220001 85.790009 C 135.779999 89.630005 133.070007 93.309998 130.369995 96.970001 C 129.470001 98.18335 128.559998 99.386658 127.639999 100.579987 C 127.339996 100.970001 124.550003 104.359985 125.800003 104.679993 C 126.529999 104.929993 127.800003 104.25 128.440002 103.880005 C 129.271805 103.362396 130.025986 102.729431 130.679993 102 C 133.529999 99 138.429993 90.75 141.679993 88.109985 C 142.497696 87.50827 143.263687 86.839264 143.970001 86.109985 C 145.300003 84.570007 144.889999 82.369995 144.339996 80.170013 C 147.669998 80.820007 150.899994 80.170013 153.220001 77.170013 C 153.847534 76.286743 154.224197 75.250061 154.309998 74.170013 C 154.610001 71 153 67.459991 150.059998 66.140015 Z"/>
        <path id="path57" fill="#8dc6e8" stroke="none" d="M 163.679993 58.23999 C 163.589996 57.910004 164.679993 57.690002 165.179993 57.809998 C 165.78273 57.992126 166.355484 58.261658 166.880005 58.609985 C 167.46962 58.899475 167.916931 59.415344 168.119995 60.039978 C 168.380005 60.97998 167.539993 61.47998 166.699997 61.25 C 166.260559 61.140442 165.893494 60.839478 165.699997 60.429993 C 165.312714 59.696716 164.74913 59.071289 164.059998 58.609985 C 163.830002 58.460022 163.710007 58.339996 163.679993 58.23999 Z"/>
        <path id="path58" fill="#eeedf2" stroke="none" d="M 163.210007 60.289978 C 163.210007 60.82019 162.780197 61.25 162.25 61.25 C 161.719803 61.25 161.289993 60.82019 161.289993 60.289978 C 161.289993 59.759827 161.719803 59.330017 162.25 59.330017 C 162.780197 59.330017 163.210007 59.759827 163.210007 60.289978 Z"/>
        <path id="path59" fill="#487629" stroke="none" d="M 184.690002 119.190002 C 182.402573 116.111481 179.952408 113.157288 177.350006 110.339996 C 175.820007 108.619995 174.25 106.859985 172.809998 105.109985 C 171.190002 103.109985 169.589996 101.329987 167.710007 100.529999 C 165.44838 99.721832 162.951004 99.90332 160.830002 101.029999 C 158.323837 102.369263 156.131836 104.227173 154.399994 106.480011 L 154.309998 106.579987 C 153.237915 108.080139 151.744949 109.228577 150.020004 109.880005 C 148.617676 110.251923 147.146698 110.282776 145.729996 109.970001 C 145.275467 109.879822 144.813385 109.832947 144.350006 109.829987 C 143.490005 109.929993 142.429993 111.200012 141.419998 112.420013 L 140.649994 113.329987 C 138.649994 115.619995 132.789993 120.459991 128.160004 121.950012 C 127.836411 122.055206 127.499969 122.115784 127.160004 122.130005 L 126.880005 122.130005 C 126.634781 124.566528 126.217072 126.982574 125.630005 129.359985 C 125.949997 129.233337 126.28334 129.113342 126.630005 129 L 126.770004 128.950012 L 127.149994 128.839996 L 127.470001 128.75 L 127.789993 128.660004 L 128.199997 128.559998 L 128.460007 128.5 L 129.139999 128.369995 L 129.610001 128.290009 L 130.610001 128.179993 L 131.110001 128.130005 L 132.110001 128.130005 L 132.649994 128.130005 L 133.740005 128.130005 C 134.110001 128.130005 134.479996 128.190002 134.839996 128.230011 C 135.588486 128.315826 136.330231 128.45282 137.059998 128.640015 C 137.440002 128.730011 137.800003 128.839996 138.149994 128.959991 C 138.875534 129.221741 139.572479 129.556793 140.229996 129.959991 C 141.537521 130.705109 142.61908 131.7901 143.360001 133.100006 C 143.864685 132.289093 144.652084 131.694061 145.570007 131.429993 C 145.919998 131.320007 146.25 131.23999 146.570007 131.170013 C 146.96434 131.09314 147.349701 130.975861 147.720001 130.820007 C 147.825241 130.761536 147.925568 130.694641 148.020004 130.619995 C 148.173782 130.494202 148.350327 130.399139 148.539993 130.339996 C 148.539993 130.200012 148.600006 130.070007 148.639999 129.929993 C 148.9021 129.128693 149.347183 128.399445 149.940002 127.799988 C 151.559998 126 154.490005 124.429993 158.669998 123.140015 C 160.270004 122.640015 161.669998 122.290009 162.669998 122.140015 C 164.669998 121.690002 164.850006 121.720001 165.300003 121.910004 C 165.936844 122.163147 166.339844 122.795837 166.300003 123.480011 C 166.290558 123.609833 166.290558 123.740173 166.300003 123.869995 L 166.300003 123.980011 C 166.314209 124.248718 166.347626 124.516052 166.399994 124.779999 C 166.576248 125.616364 166.851517 126.428772 167.220001 127.200012 C 167.440002 127.679993 167.660004 128.149994 167.899994 128.649994 C 168.139999 129.149994 168.320007 129.5 168.520004 129.929993 C 168.720001 130.359985 169.039993 131.119995 169.289993 131.839996 C 169.440002 131.559998 169.600006 131.290009 169.75 131.029999 C 171.374832 127.879211 173.390747 124.946045 175.75 122.299988 C 176.129105 121.905365 176.683578 121.731873 177.220001 121.839996 C 177.757339 121.951904 178.201462 122.328278 178.399994 122.839996 C 178.862 123.843933 179.479599 124.768677 180.229996 125.579987 C 182.58139 128.228363 184.559708 131.18576 186.110001 134.369995 C 186.630005 130.630005 186.996674 126.779999 187.210007 122.820007 Z"/>
        <path id="path60" fill="#8dc6e8" stroke="none" d="M 138.880005 80.269989 C 135.813965 78.738342 133.001205 76.745148 130.539993 74.359985 C 129.334305 73.23761 128.239273 72.001923 127.270004 70.670013 L 127.270004 70.670013 L 127.270004 97.859985 C 129.476669 94.986664 131.623337 92.06665 133.710007 89.100006 C 135.733612 86.343079 137.466187 83.383972 138.880005 80.269989 Z"/>
        <path id="path61" fill="#8dc6e8" stroke="none" d="M 127.25 25.649994 L 127.25 52.369995 C 127.594955 52.396942 127.932953 52.481445 128.25 52.619995 C 129.01918 52.989349 129.682922 53.546478 130.179993 54.23999 L 130.179993 54.23999 C 131.231155 55.546326 132.374054 56.776123 133.600006 57.919983 C 133.493027 56.166687 133.668594 54.407593 134.119995 52.710022 L 134.119995 52.529999 C 134.619995 50.529999 135.309998 48.440002 137.039993 47.850006 C 137.919205 47.560608 138.885345 47.74176 139.600006 48.330017 C 140.172607 48.819672 140.612793 49.445557 140.880005 50.149994 L 140.880005 50.149994 C 141.861954 52.426331 143.213516 54.524597 144.880005 56.359985 C 146.703384 58.257324 148.885651 59.773346 151.300003 60.820007 C 151.584717 60.558075 151.855103 60.281006 152.110001 59.98999 C 153.578659 58.40564 155.306763 57.083344 157.220001 56.080017 C 142.828049 51.491577 131.618698 40.110168 127.25 25.649994 Z"/>
        <path id="path62" fill="#ffd040" stroke="none" d="M 172.639999 32.460022 C 178.339676 32.464844 183.791367 30.129425 187.720001 26 L 187.720001 20 C 183.186371 28.296509 172.821823 31.401611 164.473328 26.964417 C 156.124817 22.527222 152.899841 12.199341 157.240005 3.799988 L 153.240005 3.799988 C 152.233109 6.277069 151.716888 8.926117 151.720001 11.600006 C 151.747574 23.132629 161.107315 32.465546 172.639999 32.460022 Z"/>
        <path id="path63" fill="#ffd040" stroke="none" d="M 172.639999 37.859985 C 178.038528 37.864716 183.306213 36.198486 187.720001 33.089996 L 187.720001 28.450012 C 179.970062 35.362854 168.511841 36.119659 159.920013 30.286194 C 151.328186 24.452728 147.804153 13.523621 151.369995 3.77002 L 147.529999 3.77002 C 145.055359 11.749817 146.519348 20.430695 151.474213 27.157532 C 156.429062 33.884399 164.285294 37.856873 172.639999 37.859985 Z"/>
        <path id="path64" fill="#ffd040" stroke="none" d="M 142.139999 3.77002 C 141.436142 6.422913 141.076538 9.155334 141.070007 11.899994 C 141.027206 20.569336 144.561539 28.872559 150.839447 34.85144 C 157.117355 40.830322 165.583069 43.955505 174.240005 43.48999 C 178.9608 43.278076 183.571075 41.992126 187.720001 39.72998 L 187.720001 35.210022 C 177.886597 41.526062 165.164566 41.07016 155.808487 34.066467 C 146.452393 27.062744 142.430466 14.984619 145.720001 3.77002 Z"/>
        <path id="path65" fill="#ffd040" stroke="none" d="M 172.639999 27 C 179.618744 26.994141 185.731827 22.322327 187.570007 15.589996 C 186.563492 8.7771 180.716858 3.730408 173.830002 3.72998 L 159.289993 3.72998 C 157.897812 6.093323 157.165665 8.787109 157.169998 11.529999 C 157.181015 20.069275 164.100723 26.988983 172.639999 27 Z"/>
        <path id="path66" fill="#8b411f" stroke="none" d="M 138.809998 8.859985 C 139.130005 7.140015 139.419998 5.440002 139.809998 3.77002 L 138.699997 3.77002 C 138.429993 4.830017 138.149994 5.890015 137.880005 6.970001 L 137.149994 6.880005 L 134.529999 6.539978 C 134.720001 5.539978 134.899994 4.630005 135.070007 3.779999 C 135 3.779999 133.910004 3.779999 133.910004 3.779999 C 133.836349 4.011047 133.786087 4.248901 133.759995 4.48999 C 133.570007 5.820007 133.399994 7.160004 133.210007 8.549988 L 136.949997 8.76001 Z"/>
        <path id="path67" fill="#8b411f" stroke="none" d="M 137.399994 3.77002 L 136.229996 3.77002 C 136.130005 4.350006 136.039993 4.929993 135.940002 5.51001 L 136.940002 5.77002 C 137.080002 5.089996 137.240005 4.429993 137.399994 3.77002 Z"/>
        <path id="path68" fill="#8b411f" stroke="none" d="M 174.919998 47.460022 L 174.919998 47.01001 L 181.440002 46.059998 C 181.440002 46.179993 181.5 46.309998 181.539993 46.440002 C 181.75 47.279999 181.990005 48.210022 182.25 49.26001 L 179.460007 49.950012 C 179.350006 51 179.460007 51.119995 180.460007 50.880005 L 184.380005 49.880005 C 183.940002 48.529999 183.539993 47.25 183.110001 45.98999 C 182.990005 45.630005 182.869995 45.27002 182.740005 44.910004 C 182.563843 44.704651 182.299561 44.59668 182.029999 44.619995 C 179.690002 45.02002 177.369995 45.470001 175.029999 45.869995 C 174.460907 45.915344 173.889099 45.915344 173.320007 45.869995 L 173.320007 55 C 168.393326 55.054199 163.492294 54.283569 158.820007 52.720001 C 159.669998 50.330017 160.5 47.98999 161.330002 45.630005 L 161.509995 45.130005 L 167.729996 46.710022 L 167.729996 47.140015 C 167.603333 48.093353 167.473328 49.073334 167.339996 50.080017 L 164.559998 49.52002 C 164.479996 49.869995 164.399994 50.179993 164.279999 50.660004 L 169.339996 51.410004 C 169.419998 50 169.5 48.640015 169.570007 47.350006 C 169.570007 46.850006 169.600006 46.360016 169.660004 45.880005 L 160.169998 43.669983 C 160 44.109985 159.820007 44.539978 159.639999 44.98999 L 156.839996 51.98999 C 152.316772 50.187317 148.133621 47.62738 144.470001 44.419983 C 146.059998 42.48999 147.610001 40.619995 149.139999 38.75 L 149.25 38.630005 C 149.490005 38.410004 149.699997 38.429993 150.029999 38.679993 C 151.619995 39.859985 153.240005 40.97998 154.919998 42.190002 L 154.699997 42.559998 L 153 45.140015 C 152.369995 44.75 151.720001 44.390015 151.139999 43.960022 C 150.559998 43.529999 150.139999 43.600006 149.860001 44.470001 L 154.080002 47.029999 L 155.970001 43.390015 L 156.660004 42.059998 L 148.860001 36.5 L 147.860001 37.5 L 142.600006 42.820007 C 139.109863 39.445618 136.203751 35.515625 134 31.190002 L 140.649994 27.789978 L 141.059998 27.580017 C 142.220001 29.410004 143.369995 31.210022 144.559998 33.070007 L 144.149994 33.350006 L 141.800003 35 L 140 32.679993 L 139.080002 33.210022 L 141.910004 37.210022 L 145.050003 34.460022 L 146.160004 33.460022 L 141.360001 25.660004 L 139.949997 26.27002 L 133.119995 29.220001 C 131.198578 24.644653 130.030136 19.788574 129.660004 14.839996 L 136.880005 14.190002 L 137.580002 14.130005 C 137.889999 16.320007 138.190002 18.410004 138.5 20.640015 L 137.990005 20.77002 L 135.320007 21.470001 C 135.089996 20.539978 134.850006 19.630005 134.589996 18.609985 L 133.440002 18.690002 C 133.860001 20.339996 134.25 21.890015 134.669998 23.570007 C 135.970001 23.140015 137.210007 22.73999 138.440002 22.320007 L 139.759995 21.869995 C 139.889999 21.820007 139.990005 21.450012 139.960007 21.26001 C 139.570007 19.01001 139.149994 16.77002 138.759995 14.52002 C 138.67215 14.089233 138.638565 13.649109 138.660004 13.210022 C 138.660004 12.600006 138.449997 12.460022 137.889999 12.460022 L 129.550003 12.460022 C 129.478989 9.518951 129.747437 6.579529 130.350006 3.700012 L 129.059998 3.700012 C 128.351456 7.759827 128.176636 11.894836 128.539993 16 C 129.385117 27.02594 134.510406 37.283691 142.820007 44.580017 C 155.035294 55.532043 172.237854 58.979462 187.729996 53.580017 L 187.729996 52.299988 C 183.821747 53.724609 179.737427 54.609436 175.589996 54.929993 C 175.369995 52.416656 175.146667 49.926666 174.919998 47.460022 Z"/>
        <path id="path69" fill="#8b411f" stroke="none" d="M 186.410004 43.200012 L 187 44.570007 C 187.240005 45.140015 187.490005 45.710022 187.740005 46.289978 L 187.740005 42.380005 L 187.740005 42.380005 Z"/>
        <path id="path70" fill="#8b411f" stroke="none" d="M 187.699997 39.710022 C 183.550537 41.970825 178.940582 43.256714 174.220001 43.470001 C 165.567413 43.932678 157.106888 40.807251 150.833084 34.830566 C 144.559265 28.853882 141.027344 20.55484 141.070007 11.890015 C 141.077393 9.148682 141.436996 6.419678 142.139999 3.77002 L 140.869995 3.77002 C 140.33403 5.808899 139.972717 7.889771 139.789993 9.98999 L 136.839996 9.850006 L 132.130005 9.630005 C 132.130005 9.529999 132.029999 9.47998 132.029999 9.440002 C 132.259995 7.549988 132.490005 5.660004 132.740005 3.77002 L 131.490005 3.77002 C 131.096512 5.917969 130.842636 8.089172 130.729996 10.27002 C 130.649994 11.380005 130.729996 11.390015 131.789993 11.390015 C 133.460007 11.390015 135.130005 11.390015 136.789993 11.390015 L 139.789993 11.390015 C 139.724991 15.07782 140.286285 18.749969 141.449997 22.25 C 141.449997 22.399994 141.240005 22.77002 141.050003 22.839996 C 140.320007 23.109985 139.589996 23.359985 138.850006 23.600006 L 138.070007 23.850006 L 134.070007 25.130005 C 133.068817 22.79422 132.493103 20.29834 132.369995 17.76001 L 135.529999 17.27002 C 135.770004 18.220001 136 19.149994 136.229996 20.070007 L 136.490005 20.210022 C 136.720001 19.960022 137.149994 19.700012 137.130005 19.460022 C 137.059998 18.369995 136.860001 17.289978 136.699997 16.210022 C 136.639999 15.73999 136.470001 15.460022 135.899994 15.52002 C 134.360001 15.660004 132.820007 15.72998 131.279999 15.880005 C 131.119995 15.880005 130.910004 16.220001 130.869995 16.429993 C 130.830002 16.640015 130.970001 16.899994 131 17.149994 C 131.349487 20.519348 132.163879 23.824097 133.419998 26.970001 C 133.669998 27.589996 133.949997 27.609985 134.470001 27.369995 C 135.470001 26.910004 136.539993 26.460022 137.580002 26.02002 L 139.5 25.200012 L 142.089996 24.100006 C 143.472275 27.527252 145.445572 30.685181 147.919998 33.429993 L 145.809998 35.320007 L 141.809998 38.910004 L 137.419998 32.910004 C 138.330002 32.350006 139.110001 31.910004 139.869995 31.390015 C 140.289993 31.109985 140.559998 31.169983 140.809998 31.600006 C 141.179993 32.210022 141.589996 32.789978 142.020004 33.429993 C 142.389999 33.070007 143.179993 33.089996 142.720001 32.330017 C 142.050003 31.22998 141.339996 30.149994 140.600006 28.97998 L 135.529999 31.609985 C 137.363617 35.107117 139.724594 38.301208 142.529999 41.080017 L 146.949997 36.589996 L 148.820007 34.700012 C 150.339996 35.98999 151.720001 37.299988 153.25 38.429993 C 154.779999 39.559998 156.419998 40.5 158.050003 41.539978 L 156.889999 43.850006 C 156.100006 45.419983 155.309998 47.01001 154.5 48.640015 L 148.089996 44.72998 L 150.199997 41.950012 L 152.880005 43.660004 C 152.949997 43.080017 153.160004 42.47998 153.009995 42.369995 C 151.899994 41.539978 150.710007 40.799988 149.490005 39.98999 C 148.309998 41.429993 147.130005 42.869995 145.830002 44.440002 C 147.669998 45.630005 149.350006 46.779999 151.100006 47.830017 C 152.509995 48.690002 154 49.410004 155.449997 50.200012 C 155.850006 50.419983 156.110001 50.350006 156.270004 49.899994 C 156.600006 49.02002 156.949997 48.149994 157.270004 47.279999 C 157.589996 46.410004 157.990005 45.460022 158.360001 44.549988 C 158.729996 43.640015 159.009995 42.919983 159.360001 42.080017 C 162.977264 43.522217 166.782669 44.438171 170.660004 44.799988 L 170.539993 47.47998 C 170.460007 49.169983 170.380005 50.850006 170.300003 52.47998 C 170.242569 52.521118 170.178207 52.551636 170.110001 52.570007 C 167.789993 52.27002 165.470001 51.97998 163.160004 51.660004 C 162.976456 51.578918 162.847855 51.408722 162.820007 51.210022 C 163.029999 50.210022 163.279999 49.210022 163.520004 48.210022 L 166.440002 48.700012 C 166.270004 48.200012 166.229996 47.700012 166.050003 47.609985 C 164.770004 47.23999 163.460007 46.970001 162.130005 46.609985 C 161.520004 48.450012 160.929993 50.210022 160.320007 52.059998 L 162.320007 52.549988 C 165.231293 53.297577 168.215805 53.72345 171.220001 53.820007 C 171.889999 53.820007 172.089996 53.640015 172.080002 52.97998 C 172.080002 51.149994 172.080002 49.320007 172.080002 47.48999 C 172.080002 46.859985 172.080002 46.220001 172.080002 45.580017 C 172.080002 44.940002 172.289993 44.720001 172.929993 44.72998 C 175.055237 44.795868 177.17923 44.563599 179.240005 44.039978 C 180.589996 43.679993 181.960007 43.369995 183.410004 43.039978 L 184.25 45.630005 L 185.850006 50.529999 C 183.510849 51.537628 181.012909 52.126587 178.470001 52.27002 C 178.300003 51.130005 178.139999 50.100006 177.990005 49.070007 C 178.759995 48.890015 179.5 48.700012 180.25 48.539978 C 180.630005 48.460022 180.940002 48.279999 180.710007 47.890015 C 180.53688 47.661804 180.266434 47.528442 179.979996 47.529999 C 178.979996 47.619995 177.979996 47.809998 176.979996 47.899994 C 176.410004 47.899994 176.210007 48.179993 176.259995 48.73999 C 176.410004 50.359985 176.520004 51.97998 176.649994 53.73999 C 180.473267 53.420959 184.227737 52.534546 187.789993 51.109985 L 187.789993 49.429993 C 187.16333 47.950012 186.536667 46.476685 185.910004 45.01001 L 184.830002 42.47998 C 185.830002 42.049988 186.830002 41.589996 187.75 41.100006 L 187.75 41.100006 L 187.75 39.679993 Z"/>
        <path id="path71" fill="#cab44b" stroke="none" d="M 185.779999 139.709991 C 185.741394 139.128357 185.661194 138.550201 185.539993 137.980011 C 184.660004 133.75 181.740005 130.100006 178.960007 126.700012 C 178.102173 125.757202 177.40004 124.683746 176.880005 123.519989 C 174.613266 126.070129 172.671768 128.891693 171.100006 131.920013 C 169.910858 133.775146 169.051529 135.82196 168.559998 137.970001 C 168.190002 140.140015 168.380005 142.970001 170 144.440002 C 168.813858 144.19455 167.751862 143.539673 167 142.589996 L 169.399994 145.529999 L 166.050003 144 C 165.319153 146.10968 164.839172 148.298096 164.619995 150.519989 C 164.438629 151.838074 164.509903 153.178589 164.830002 154.470001 C 165.166031 155.769287 166.043686 156.861816 167.240005 157.470001 C 165.890076 157.043304 164.614792 156.409027 163.460007 155.589996 C 163.259399 159.131622 162.231964 162.576996 160.460007 165.649994 C 160.255569 165.924866 160.143539 166.257477 160.139999 166.600006 C 160.187729 166.856018 160.297623 167.096405 160.460007 167.299988 L 163.080002 171.119995 C 161.356812 170.449768 159.913956 169.211517 158.990005 167.609985 C 158.053299 170.089355 157.307785 172.63681 156.759995 175.230011 C 156.520813 176.256165 156.400024 177.306335 156.399994 178.359985 C 156.561432 179.862305 156.852509 181.34787 157.270004 182.799988 C 157.735428 184.970001 157.79982 187.206818 157.460007 189.399994 C 159.577271 186.319794 161.446487 183.076263 163.050003 179.700012 C 165.320007 175.01001 167.25 170.140015 169.220001 165.299988 C 171.237534 160.480133 172.967239 155.5448 174.399994 150.519989 C 175.847092 145.487701 176.521454 140.264801 176.399994 135.029999 C 176.645645 140.273132 176.092667 145.523132 174.759995 150.600006 C 173.438812 155.676727 171.812515 160.669159 169.889999 165.549988 C 168.029999 170.450012 166.210007 175.359985 164.029999 180.149994 C 162.348129 183.920929 160.34053 187.537994 158.029999 190.959991 C 159.570007 189.570007 161.029999 188.109985 162.490005 186.600006 C 166.962769 181.811066 170.850067 176.507141 174.070007 170.799988 C 172.601959 170.504669 171.242813 169.812988 170.139999 168.799988 C 171.589615 169.368439 173.132919 169.660156 174.690002 169.660004 L 175.119995 168.880005 C 173.465485 168.69165 171.840149 168.302094 170.279999 167.720001 C 171.738724 167.979797 173.22702 168.030304 174.699997 167.869995 C 175.061401 167.84314 175.417755 167.769196 175.759995 167.649994 C 175.935989 167.58963 176.101349 167.501892 176.25 167.390015 C 176.705719 166.991455 177.050278 166.481506 177.25 165.910004 C 178.236664 163.690002 179.236664 161.470001 180.25 159.25 C 181.248291 157.346039 181.888885 155.275085 182.139999 153.140015 L 181.850006 153.140015 C 181.130005 153.059998 180.289993 152.859985 179.550003 152.76001 C 179.37825 152.759796 179.207108 152.739655 179.039993 152.700012 L 179.550003 152.76001 C 180.738617 152.706329 181.832138 152.094696 182.5 151.109985 L 182.580002 150.98999 C 183.282135 149.761536 183.730972 148.404816 183.899994 147 C 184.130005 145.809998 184.369995 144.609985 184.600006 143.420013 L 184.470001 143.420013 L 181.149994 143.51001 C 182.388412 143.036621 183.574677 142.436798 184.690002 141.720001 L 184.860001 141.609985 C 185.202713 141.401764 185.482635 141.104553 185.669998 140.75 C 185.783325 140.415771 185.820892 140.060547 185.779999 139.709991 Z"/>
        <path id="path72" fill="#487629" stroke="none" d="M 168 133.519989 C 167.765594 132.551025 167.430435 131.609222 167 130.709991 C 166.580002 129.790009 166.119995 128.890015 165.699997 127.970001 C 165.283066 127.082611 164.970963 126.149658 164.770004 125.190002 C 164.703049 124.860168 164.659607 124.526001 164.639999 124.190002 C 164.639999 123.970001 164.639999 123.73999 164.639999 123.51001 C 164.639999 123.459991 154.550003 125.23999 151.119995 129.049988 C 150.678009 129.47229 150.336304 129.988251 150.119995 130.559998 C 149.720001 131.929993 150.660004 133.299988 151.550003 134.429993 C 152.089996 135.119995 152.639999 135.809998 153.179993 136.51001 C 151.114639 135.808746 149.542603 134.11261 149 132 C 148.823288 132.14267 148.632263 132.266663 148.429993 132.369995 C 147.655594 132.675995 146.855865 132.913574 146.039993 133.079987 C 145.373627 133.247284 144.827332 133.722961 144.570007 134.359985 C 144.347778 135.236542 144.515518 136.166351 145.029999 136.910004 C 145.563126 137.622467 146.345016 138.108032 147.220001 138.269989 C 146.289993 140.329987 145.169998 141.869995 143.649994 141.269989 C 144.124664 143.722382 144.07695 146.247284 143.509995 148.679993 C 142.837006 150.407196 142.497665 152.246368 142.509995 154.100006 C 142.690002 156.429993 144.050003 158.48999 145.360001 160.429993 C 144.130356 160.345367 142.963165 159.856689 142.039993 159.040009 C 140.059128 163.863617 141.324051 169.411713 145.199997 172.899994 C 143.942566 172.60791 142.783905 171.990631 141.839996 171.109985 C 142.91861 177.271332 145.250015 183.145813 148.690002 188.369995 L 148.789993 174.690002 C 148.736679 169.756226 148.98381 164.823761 149.529999 159.920013 C 149.844284 157.468903 150.284882 155.035675 150.850006 152.630005 C 151.399612 150.22464 152.09082 147.853851 152.919998 145.529999 C 153.730026 143.195221 154.81073 140.963348 156.139999 138.880005 C 157.462296 136.795441 159.18158 134.991211 161.199997 133.570007 C 159.222672 135.031982 157.553986 136.870605 156.289993 138.980011 C 155.039307 141.081848 154.032791 143.319702 153.289993 145.649994 C 152.527786 147.978699 151.900085 150.349274 151.410004 152.75 C 150.909271 155.145691 150.532104 157.565552 150.279999 160 C 149.848129 164.880676 149.721222 169.783539 149.899994 174.679993 L 150.119995 188.040009 C 151.533417 187.414825 152.805634 186.509979 153.860001 185.380005 C 155.233673 183.925415 155.999268 182.000702 156 180 C 155.894577 178.958954 155.734344 177.924194 155.520004 176.899994 C 155.309875 175.542999 155.330154 174.160248 155.580002 172.809998 C 154.249237 173.500336 152.794235 173.918488 151.300003 174.040009 C 152.100006 172.920013 153.850006 172.769989 154.580002 171.600006 C 154.814743 171.144714 154.999161 170.665222 155.130005 170.170013 C 155.919998 168.059998 158.440002 166.600006 158.289993 164.359985 C 157.242691 164.104828 156.322876 163.479767 155.699997 162.600006 C 157.179993 162.700012 158.820007 162.76001 159.970001 161.820007 C 160.589279 161.264069 161.042679 160.547638 161.279999 159.75 C 161.94075 157.835724 161.98967 155.763336 161.419998 153.820007 L 158.160004 153.640015 C 159.469055 153.209442 160.740082 152.670929 161.960007 152.029999 C 162.778275 151.737366 163.24411 150.874725 163.039993 150.029999 C 162.960007 147.380005 162.970001 144.5 164.570007 142.380005 L 159.899994 142.630005 C 161.309998 141.130005 163.539993 140.790009 165.589996 140.549988 C 166.039001 140.52417 166.476456 140.397736 166.869995 140.179993 C 167.242279 139.87381 167.51976 139.468018 167.669998 139.01001 C 168.333466 137.255646 168.448532 135.341187 168 133.519989 Z"/>
        <path id="path73" fill="#944e10" stroke="none" d="M 142.220001 143.690002 C 142.270081 143.503296 142.270081 143.306702 142.220001 143.119995 C 141.935959 141.401459 141.250763 139.774109 140.220001 138.369995 C 139.620071 137.478424 138.686646 136.865753 137.630005 136.670013 C 136.039993 136.450012 134.419998 137.429993 133.199997 138.350006 C 132.323318 138.91687 131.576874 139.66333 131.009995 140.540009 C 130.963028 140.607391 130.938538 140.687866 130.940002 140.769989 C 130.960068 140.849182 131.005783 140.919525 131.070007 140.970001 C 131.885895 141.800903 132.791443 142.538727 133.770004 143.170013 C 132.535141 143.116241 131.338547 142.725464 130.309998 142.040009 C 130.139999 141.929993 129.429993 143.040009 129.360001 143.140015 C 129.110306 143.606445 128.896362 144.091187 128.720001 144.589996 C 128.158356 146.158234 127.759583 147.780121 127.529999 149.429993 C 128.841797 150.155762 130.32103 150.524719 131.820007 150.5 C 130.41864 151.080048 128.839142 151.051056 127.460007 150.420013 C 127.115829 152.029358 127.024734 153.682556 127.190002 155.320007 C 127.190002 155.440002 127.660004 155.51001 127.759995 155.540009 C 128.041748 155.61499 128.329514 155.665161 128.619995 155.690002 C 128.952637 155.720581 129.287369 155.720581 129.619995 155.690002 C 129.928726 155.612457 130.242996 155.55896 130.559998 155.529999 C 130.31958 156.255096 129.801849 156.85553 129.119995 157.200012 C 128.780441 157.383118 128.416916 157.517761 128.039993 157.600006 C 127.979996 157.600006 127.190002 157.790009 127.190002 157.769989 C 127.360001 159 127.5 160.23999 127.630005 161.470001 C 127.799423 162.64978 127.899597 163.838501 127.929993 165.029999 C 127.929993 165.23999 127.929993 165.450012 127.929993 165.660004 C 127.929993 165.869995 127.839996 166.049988 127.929993 166.109985 C 129.134827 166.758942 130.51265 167.014221 131.869995 166.839996 C 130.481232 167.192657 129.060989 167.407043 127.630005 167.480011 C 127.529999 169.109985 127.5 170.859985 126.630005 172.23999 C 126.779999 172.829987 126.820007 173.369995 126.869995 173.529999 C 127.262558 174.712677 127.754303 175.860107 128.339996 176.959991 C 130.127075 180.191528 133.140518 182.566956 136.699997 183.549988 C 136.209137 182.517181 135.843216 181.429504 135.610001 180.309998 C 135.259995 178.679993 135.100006 177.059998 134.910004 175.470001 C 134.539993 172.269989 134.119995 169.070007 133.839996 165.850006 C 133.521713 162.625519 133.498291 159.378723 133.770004 156.149994 C 134.038971 152.924805 134.857437 149.769318 136.190002 146.820007 C 134.975357 149.800385 134.275421 152.965363 134.119995 156.179993 C 133.973389 159.386414 134.11731 162.599518 134.550003 165.779999 C 134.940002 168.959991 135.479996 172.140015 135.960007 175.320007 C 136.220001 176.920013 136.429993 178.51001 136.820007 180.019989 C 137.111816 181.260223 137.601425 182.445404 138.270004 183.529999 C 139.029434 183.135376 139.743637 182.659241 140.399994 182.109985 C 141.218277 181.444519 141.785995 180.52066 142.009995 179.48999 C 142.112473 178.191254 141.885452 176.887665 141.350006 175.700012 C 141.061371 174.671722 140.857361 173.621552 140.740005 172.559998 C 140.676117 171.781647 140.552414 171.009369 140.369995 170.25 C 140.257141 169.485687 140.103592 168.727936 139.910004 167.980011 C 139.555954 166.827881 139.304962 165.646545 139.160004 164.450012 C 139.071945 163.813934 139.051834 163.170319 139.100006 162.529999 C 137.894043 162.518768 136.710571 162.202271 135.660004 161.609985 C 136.787552 162.010162 137.988647 162.160309 139.179993 162.049988 C 138.769501 160.608398 138.832596 159.073059 139.360001 157.670013 C 139.881332 156.268829 140.551849 154.927765 141.360001 153.670013 C 139.823196 153.562897 138.317062 153.187225 136.910004 152.559998 C 138.386581 152.809723 139.889999 152.860168 141.380005 152.709991 C 140.773102 152.18399 140.435226 151.41275 140.460007 150.609985 C 140.487305 149.813507 140.695923 149.033722 141.070007 148.329987 C 141.370804 147.790344 141.637985 147.232605 141.869995 146.660004 C 142.100021 146.078583 142.100021 145.431396 141.869995 144.850006 C 140.769669 145.257446 139.568008 145.302979 138.440002 144.980011 C 139.49736 144.896667 140.537643 144.664398 141.529999 144.290009 C 141.779999 144.160004 142.119995 144 142.220001 143.690002 Z"/>
        <path id="path74" fill="#0097ce" stroke="none" d="M 24 128.600006 C 26.267029 125.675293 30.321419 124.827972 33.57 126.600006 C 34.047318 126.878418 34.505051 127.189148 34.940002 127.529999 C 35.428741 127.970642 35.999649 128.310455 36.620003 128.529999 C 38.057968 128.727844 39.522514 128.509186 40.839996 127.899994 L 41.940002 127.540009 C 44.481346 126.755859 47.120811 126.335022 49.779999 126.290009 C 50.338074 126.292816 50.895576 126.326202 51.449997 126.390015 C 47.550003 125.049988 43.610001 123.839996 39.720001 122.630005 L 38.019997 122.109985 C 37.360001 121.899994 36.589996 121.700012 35.769997 121.48999 C 33.135059 120.966644 30.597889 120.035461 28.25 118.730011 C 27.104813 118.138 26.259819 117.093567 25.919998 115.850006 C 25.59 113.850006 27.57 112.630005 29.080002 111.850006 C 32.080002 110.309998 35.459999 109.779999 38.760002 109.269989 L 39.010002 109.269989 C 40.480003 109.040009 42.010002 108.829987 43.449997 108.630005 C 45.540001 108.350006 47.699997 108.049988 49.82 107.679993 L 51.550003 107.359985 C 54.027885 106.951569 56.426788 106.158691 58.660004 105.01001 C 61.094452 103.602783 62.964386 101.393494 63.949997 98.76001 C 65.024506 96.090759 65.024506 93.109253 63.949997 90.440002 L 63.949997 90.359985 C 62.398697 87.016052 59.635971 84.385559 56.220001 83 C 52.480003 81.350006 48.419998 80.869995 44.489998 80.410004 C 42.029999 80.100006 39.489998 79.809998 37.099998 79.529999 L 33.380001 79.100006 C 30.464458 78.91275 27.60601 78.204926 24.939999 77.01001 C 23.290001 76.149994 22.009998 74.609985 23.110001 72.769989 C 24.860001 69.859985 29.919998 68.279999 32.639999 67.440002 C 36.372078 66.343567 40.204498 65.623291 44.080002 65.289978 C 50.65564 64.674805 57.274361 64.674805 63.849998 65.289978 L 63.940002 65.289978 L 63.940002 59.869995 C 54.403412 59.154297 44.826591 59.154297 35.290001 59.869995 C 30.66478 60.131348 26.076241 60.844757 21.59 62 C 14.84 63.809998 8.119999 66.210022 4.669998 71.48999 C 4.335365 72.008301 4.044365 72.553528 3.799999 73.119995 C 3.157223 74.562378 2.922039 76.153351 3.119999 77.720001 C 3.232628 78.50946 3.461792 79.277832 3.799999 80 C 4.511719 81.475739 5.568127 82.758514 6.880001 83.73999 C 8.801304 85.099915 10.978558 86.055878 13.279999 86.549988 C 17.361179 87.407501 21.519711 87.84314 25.689999 87.850006 C 26.939999 87.899994 28.23 87.950012 29.490002 88.019989 C 32.720657 88.198029 35.938942 88.555237 39.129997 89.089996 C 41.381996 89.416077 43.593925 89.975769 45.730003 90.76001 C 47.730003 91.519989 49.529999 92.5 49.730003 94.399994 C 50.160004 97.700012 46.150002 98.910004 42.360001 99.779999 L 42.300003 99.779999 C 34.300003 101.619995 25.98 101.339996 18.150002 104.109985 C 8.470001 107.540009 1.309999 115.450012 1.469999 126.109985 C 1.556507 131.532196 3.367313 136.78598 6.639999 141.109985 C 6.91 141.459991 7.639999 142.23999 8.290001 142.910004 C 12.580002 139.339996 18.93 136.910004 23.290001 136.029999 C 22.202358 133.601013 22.472023 130.779053 24 128.600006 Z"/>
        <path id="path75" fill="#71a850" stroke="none" d="M 60.860001 126.26001 C 62.051186 125.671021 63.326225 125.269592 64.639999 125.070007 C 64.161667 121.801971 63.927681 118.502838 63.940002 115.200012 L 63.940002 102.690002 C 62.79776 104.30127 61.31636 105.642731 59.599998 106.619995 C 57.190079 107.870758 54.598404 108.73465 51.919998 109.179993 L 50.150002 109.51001 L 49.93 109.51001 C 45.339996 110.299988 40.580002 110.630005 35.93 111.51001 C 34.397568 111.785492 32.894329 112.203979 31.439999 112.76001 C 30.32 113.200012 28.110001 114.059998 28.23 115.589996 C 28.330002 116.859985 29.740002 117.519989 30.779999 117.890015 C 34.629997 119.279999 38.639999 120.190002 42.550003 121.380005 C 46.459999 122.570007 50.550003 123.910004 54.480003 125.320007 C 56.160004 125.91333 57.826668 126.540009 59.480003 127.200012 L 59.699997 127.019989 C 60.05938 126.727295 60.44812 126.472595 60.860001 126.26001 Z"/>
        <path id="path76" fill="#487629" stroke="none" d="M 76.330002 200.359985 C 75.45417 200.421509 74.59536 200.096252 73.980003 199.470001 C 73.923973 199.397644 73.889336 199.311035 73.879997 199.220001 C 73.879997 198.570007 75.629997 198.76001 75.970001 198.779999 C 78.244377 198.950378 80.530853 198.709869 82.720001 198.070007 C 83.131454 197.986084 83.513985 197.796539 83.830002 197.519989 C 84.020821 197.304169 84.166969 197.052643 84.260002 196.779999 C 84.260002 196.709991 84.260002 196.649994 84.330002 196.579987 C 84.955276 194.588257 85.29203 192.517242 85.330002 190.429993 C 85.366585 189.503662 85.312996 188.575958 85.169998 187.660004 C 83.25 187.799988 81.169998 189.119995 79.169998 189.26001 C 78.550003 189.26001 77.169998 189.390015 76.82 188.690002 C 76.300003 187.690002 80.339996 187.429993 80.919998 187.420013 C 82.440002 187.420013 84.129997 187.420013 85.190002 186.109985 C 85.426964 185.809113 85.612778 185.471252 85.739998 185.109985 C 85.886475 184.684021 85.993591 184.245514 86.059998 183.799988 C 86.530022 180.315765 86.530022 176.78421 86.059998 173.299988 C 85.769997 170.23999 85.82 166.410004 83.459999 164.440002 C 82.589996 163.709991 81.32 163.359985 80.519997 164.380005 C 80.256409 164.698059 80.012611 165.032013 79.790001 165.380005 L 79.629997 165.709991 C 79.62587 165.746552 79.62587 165.783447 79.629997 165.820007 C 79.587738 165.914093 79.53756 166.004425 79.480003 166.089996 C 79.349998 166.339996 79.220001 166.589996 79.080002 166.839996 C 78.774902 167.371124 78.441078 167.885223 78.080002 168.380005 C 76.838913 170.119476 75.195526 171.53299 73.290001 172.5 L 73.290001 172.5 C 72.489571 172.871521 71.646614 173.143555 70.779999 173.309998 C 71.199997 176.790009 71.849998 181 72.199997 184.23999 C 72.349869 184.910858 72.279739 185.612122 72 186.23999 C 71.660004 186.820007 70.739998 187.100006 70.300003 186.579987 C 70.113991 186.31427 70.022446 185.993866 70.040001 185.670013 C 70.04879 183.533081 70.192406 181.398834 70.470001 179.279999 C 70.517044 177.314209 70.222679 175.355164 69.599998 173.48999 C 68.730713 173.539673 67.859291 173.539673 66.989998 173.48999 C 65.937637 173.431641 64.882057 173.481903 63.839996 173.640015 C 62.804436 173.901245 61.798981 174.269897 60.839996 174.73999 C 59.982475 175.144073 59.1008 175.494751 58.199997 175.790009 C 58.400002 180.630005 62.800003 188.480011 61.720001 192.73999 C 61.634308 193.21167 61.34037 193.619537 60.919998 193.850006 C 60.717239 193.943695 60.476463 193.870575 60.360001 193.679993 C 60.339661 193.587769 60.339661 193.492218 60.360001 193.399994 C 60.530258 190.819061 60.459953 188.227905 60.150002 185.660004 C 59.976929 184.373108 59.675423 183.106812 59.25 181.880005 C 59.129997 181.549988 56.970001 176.040009 56.620003 176.200012 C 54.021141 177.494873 51.914864 179.601135 50.620003 182.200012 C 49.110001 184.940002 48.419998 188.019989 46.110001 190.459991 C 45.79406 190.775665 45.460175 191.072815 45.110001 191.350006 C 44.568779 191.722168 44.117752 192.210785 43.790001 192.779999 C 43.681519 193.104614 43.607773 193.439819 43.57 193.779999 C 43.499062 194.741241 43.151794 195.66153 42.57 196.429993 C 42.327469 196.707733 42.044258 196.947113 41.730003 197.140015 C 46.917839 200.683228 52.485802 203.634918 58.330002 205.940002 L 58.589996 206.040009 C 60.25 204.529999 61.849998 202.970001 63.370003 201.320007 C 65.364227 199.16922 67.237129 196.909058 68.980003 194.549988 C 70.727661 192.187683 72.34346 189.730621 73.82 187.190002 C 75.309998 184.640015 76.629997 182.01001 78 179.399994 C 76.709999 182.049988 75.470001 184.730011 74.07 187.320007 C 71.237617 192.569794 67.837234 197.492645 63.93 202 C 62.559998 203.579987 61.110001 205.100006 59.610001 206.570007 C 65.881523 208.889893 72.381104 210.539093 79 211.48999 C 81.181458 207.806 82.485153 203.669098 82.809998 199.399994 C 80.707657 200.031067 78.525009 200.354431 76.330002 200.359985 Z M 56.459999 198.790009 C 56.08371 199.213959 55.440468 199.266815 55 198.910004 C 53.760002 197.910004 54 195.350006 54.790001 194.170013 C 55.190002 193.589996 55.300003 193.480011 55.589996 194.040009 C 55.924553 195.119049 56.191734 196.217834 56.389999 197.329987 C 56.636383 197.78006 56.662193 198.31842 56.459999 198.790009 Z M 66.93 190.089996 C 66.558594 190.411804 65.997719 190.37619 65.669998 190.01001 C 64.730003 189.01001 65.25 186.850006 66.080002 185.950012 C 66.489998 185.51001 66.599998 185.420013 66.779999 185.950012 C 66.927696 186.907074 67.01786 187.872131 67.050003 188.839996 C 67.203354 189.253082 67.159142 189.713623 66.93 190.089996 Z M 74.779999 193.570007 C 74.957687 193.340637 75.208038 193.178436 75.489998 193.109985 C 75.932602 193.006378 76.385437 192.952698 76.839996 192.950012 C 77.59687 192.797852 78.37278 192.76413 79.139999 192.850006 C 79.720001 193.079987 79.459999 193.579987 78.959999 193.950012 C 78.558037 194.220428 78.092995 194.382324 77.610001 194.420013 C 76.837708 194.516876 76.055054 194.493256 75.290001 194.350006 C 75.059998 194.299988 74.800003 194.220001 74.720001 194 C 74.668633 193.855469 74.691032 193.694946 74.779999 193.570007 Z M 74.510002 205.130005 C 74.089745 205.572174 73.533493 205.86087 72.93 205.950012 C 72.019112 206.122162 71.080498 206.077637 70.190002 205.820007 C 69.866745 205.764862 69.605118 205.526672 69.519997 205.209991 C 69.4701 204.957672 69.498001 204.696136 69.599998 204.459991 C 69.758537 204.096588 70.052788 203.809509 70.419998 203.660004 C 70.930351 203.462463 71.472755 203.360779 72.019997 203.359985 C 72.720001 203.359985 74.080002 202.829987 74.720001 203.200012 C 75.360001 203.570007 75.099998 204.480011 74.510002 205.130005 Z"/>
        <path id="path77" fill="#e5e0cc" stroke="none" d="M 67.300003 136.640015 C 67.294319 136.613647 67.294319 136.586365 67.300003 136.559998 C 67.300003 135.390015 65.410004 133.399994 64.760002 133.220001 C 63.150002 132.790009 60.830002 133.220001 60.440002 135.119995 C 60.335068 135.869354 60.365555 136.631439 60.529999 137.369995 C 57.93 136.089996 55.660004 134 52.589996 134.019989 C 50.032524 134.176025 47.516914 134.743286 45.139999 135.700012 C 42.921165 136.425323 41.161072 138.133759 40.370003 140.329987 C 40.169998 140.929993 39.459999 140.920013 39.169998 141.480011 C 38.879997 142.040009 38.470001 142.369995 38.169998 142.869995 C 37.690002 143.779999 37.849998 144.869995 37.449997 145.869995 C 36.980171 146.644989 36.448441 147.380737 35.860001 148.070007 C 35.508545 148.673645 35.242668 149.323181 35.07 150 L 32.07 159.850006 C 31.671722 160.674408 31.671722 161.63559 32.07 162.459991 C 32.25 162.709991 32.52 162.899994 32.689999 163.170013 C 32.912762 163.598724 33.022877 164.077026 33.009998 164.559998 C 33.169998 166.429993 34.010002 168.450012 35.75 169.160004 C 36.163567 169.270599 36.555672 169.449738 36.910004 169.690002 C 37.400002 170.100006 37.5 170.799988 37.800003 171.369995 C 38.099998 171.940002 38.870003 172.369995 39.339996 171.959991 C 39.119453 174.30246 39.271332 176.66507 39.790001 178.959991 C 40.459999 181.329987 41.919998 183.820007 40.970001 186.079987 C 42.489998 184.859985 45.5 185.609985 45.75 179.850006 C 45.849998 177.649994 45.82 174.850006 46.660004 172.779999 C 47.660004 170.350006 50.239998 168.940002 52.230003 167.420013 C 53.274925 166.504669 54.384468 165.665802 55.550003 164.910004 C 56.730003 164.26001 58.800003 162.709991 60.150002 162.649994 C 61.089996 162.600006 61.779999 163.320007 62.639999 163.559998 C 64.760002 164.149994 67.029999 164.309998 69.18 164.929993 C 70.654243 165.406555 72.202377 165.61319 73.75 165.540009 C 74.970001 165.429993 77.540001 165.029999 78.599998 163.970001 C 79.093063 162.671509 79.474449 161.333313 79.739998 159.970001 C 79.739998 159.880005 79.739998 159.799988 79.739998 159.709991 C 79.577728 160.119598 79.380325 160.514404 79.150002 160.890015 C 78.71312 161.509857 78.19136 162.065277 77.599998 162.540009 C 77.314079 162.826996 76.934082 163.001007 76.529999 163.029999 C 76.286545 163.008667 76.050873 162.933533 75.839996 162.809998 C 74.730347 162.189911 73.719254 161.40802 72.839996 160.48999 C 72.223671 159.985382 71.736824 159.34082 71.419998 158.609985 C 71.223572 157.852478 71.308861 157.049377 71.660004 156.350006 C 71.94693 155.800232 72.417572 155.36853 72.989998 155.130005 C 73.239998 154.98999 73.489998 154.859985 73.720001 154.720001 C 74.503639 154.032776 75.498642 153.634064 76.540001 153.589996 L 77 153.670013 L 76.889999 153.579987 C 74.889999 151.970001 72.279999 149.959991 71.889999 147.410004 C 71.831841 146.948792 71.798454 146.484802 71.790001 146.019989 C 68.660004 145.399994 66.889999 143.440002 64.889999 140.920013 C 63.936005 139.941284 63.498787 138.570343 63.709999 137.220001 C 63.765518 136.990082 63.887199 136.781494 64.059998 136.619995 C 64.557457 136.234711 65.252541 136.234711 65.75 136.619995 C 66.269417 136.893005 66.739288 137.251343 67.139999 137.679993 C 67.119995 137.427063 67.119995 137.172943 67.139999 136.920013 L 67.139999 136.920013 Z M 59.129997 156.269989 C 55.5 160.200012 51.419998 162.059998 47.190002 165.329987 C 46.989998 164.329987 45.660004 163.98999 44.610001 164.070007 C 43.559998 164.149994 42.360001 164.339996 41.610001 163.640015 C 41.239998 163.299988 41.010002 162.779999 40.550003 162.579987 C 40.159676 162.479675 39.75032 162.479675 39.360001 162.579987 C 37.947159 162.783356 36.510933 162.424286 35.360001 161.579987 C 36.860001 161.440002 37.360001 160.429993 38.220001 159.769989 C 39.44194 158.738464 40.289116 157.332367 40.629997 155.769989 C 41.169998 153.859985 41.32 151.769989 41.910004 149.920013 C 42.720001 147.390015 43.760002 146.529999 44.980003 144.269989 C 45.709999 142.910004 44.68 141.790009 47.360001 139.089996 C 48.870003 137.559998 52.690002 136.970001 54.760002 137.540009 C 55.760002 137.809998 55.760002 139.029999 56.540001 139.709991 C 58 141.070007 59.660004 142.269989 59.620003 144.269989 C 59.620003 146.630005 57.989998 148.929993 59.029999 151.049988 C 59.339996 151.690002 59.93 152.23999 59.93 152.959991 C 59.884239 154.105286 59.61235 155.230225 59.129997 156.269989 Z"/>
        <path id="path78" fill="#373a36" stroke="none" d="M 73.849998 154.660004 C 73.620003 154.799988 73.370003 154.929993 73.120003 155.070007 C 72.547577 155.308533 72.076927 155.740234 71.790001 156.290009 C 71.438858 156.98938 71.353577 157.79248 71.550003 158.549988 C 71.866821 159.280823 72.353676 159.925385 72.970001 160.429993 C 73.849251 161.347992 74.860352 162.129913 75.970001 162.75 C 76.18087 162.873535 76.416542 162.948669 76.660004 162.970001 C 77.064079 162.94101 77.444077 162.766998 77.730003 162.480011 C 78.321358 162.00528 78.843117 161.44986 79.279999 160.829987 C 79.510323 160.454407 79.707726 160.059601 79.870003 159.649994 C 79.976669 159.390015 80.076668 159.130005 80.169998 158.869995 L 80.169998 158.869995 C 80.239998 158.670013 80.309998 158.459991 80.370003 158.25 C 80.51001 157.773407 80.51001 157.266602 80.370003 156.790009 C 80.170853 156.174957 79.828056 155.616211 79.370003 155.160004 C 78.787346 154.446014 78.014069 153.911987 77.139999 153.619995 L 76.68 153.540009 C 75.636406 153.57901 74.637657 153.974274 73.849998 154.660004 Z"/>
        <path id="path79" fill="#373a36" stroke="none" d="M 65.879997 136.579987 C 65.382538 136.194733 64.687462 136.194733 64.190002 136.579987 C 64.017197 136.741486 63.895515 136.950104 63.839996 137.179993 C 63.628792 138.530334 64.06601 139.901276 65.019997 140.880005 C 67.019997 143.399994 68.790001 145.359985 71.919998 145.980011 C 71.912552 145.423218 71.838699 144.869293 71.699997 144.329987 C 70.970001 141.869995 67.889999 140.609985 67.339996 138.100006 C 67.302101 137.956024 67.278656 137.808624 67.269997 137.660004 C 66.87088 137.224182 66.400917 136.859039 65.879997 136.579987 Z"/>
        <path id="path80" fill="#373a36" stroke="none" d="M 59.540001 144.269989 C 59.540001 142.269989 57.919998 141.070007 56.459999 139.709991 C 55.709999 139.029999 55.650002 137.809998 54.68 137.540009 C 52.610001 136.970001 48.790001 137.540009 47.279999 139.089996 C 44.599998 141.790009 45.629997 142.910004 44.900002 144.269989 C 43.68 146.529999 42.639999 147.390015 41.830002 149.920013 C 41.239998 151.76001 41.089996 153.859985 40.550003 155.769989 C 40.209122 157.332367 39.361938 158.738464 38.139999 159.769989 C 37.300003 160.429993 36.779999 161.440002 35.279999 161.579987 C 36.430931 162.424286 37.867157 162.783356 39.279999 162.579987 C 39.670319 162.479675 40.079681 162.479675 40.470001 162.579987 C 40.93 162.779999 41.160004 163.299988 41.529999 163.640015 C 42.309998 164.339996 43.529999 164.140015 44.529999 164.070007 C 45.529999 164 46.910004 164.299988 47.110001 165.329987 C 51.339996 162.059998 55.419998 160.200012 59.050003 156.269989 C 59.504799 155.224579 59.749451 154.099884 59.769997 152.959991 C 59.769997 152.23999 59.18 151.690002 58.870003 151.049988 C 57.910004 148.929993 59.5 146.630005 59.540001 144.269989 Z M 54.480003 147.700012 C 53.885689 147.822296 53.284622 147.909088 52.68 147.959991 C 52.443115 148.014709 52.196884 148.014709 51.959999 147.959991 C 51.783577 147.910553 51.644272 147.774994 51.589996 147.600006 C 51.574623 147.520752 51.574623 147.43927 51.589996 147.359985 C 51.633461 147.112885 51.693596 146.868988 51.769997 146.630005 C 51.813927 146.510834 51.863991 146.394012 51.919998 146.279999 C 52.112633 145.909943 52.394455 145.59375 52.739998 145.359985 C 53.061668 145.135895 53.438721 145.004425 53.830002 144.980011 C 54.362297 144.955872 54.891136 145.076843 55.360001 145.329987 C 55.824455 145.583557 56.263184 145.881622 56.669998 146.220001 C 56.113495 146.93103 55.347282 147.448822 54.480003 147.700012 Z"/>
        <path id="path81" fill="#ffffff" stroke="none" d="M 53.849998 145 C 53.458717 145.024445 53.081665 145.155884 52.760002 145.380005 C 52.414459 145.61377 52.132629 145.929962 51.940002 146.299988 C 51.883995 146.414001 51.833923 146.530823 51.790001 146.649994 C 51.7136 146.889008 51.653458 147.132874 51.610001 147.380005 C 51.59462 147.459259 51.59462 147.540741 51.610001 147.619995 C 51.664276 147.795013 51.803581 147.930542 51.980003 147.980011 C 52.216881 148.034698 52.46312 148.034698 52.699997 147.980011 C 53.304626 147.929108 53.905685 147.842285 54.5 147.720001 C 55.378548 147.4646 56.152733 146.935638 56.709999 146.209991 C 56.303185 145.871613 55.864456 145.573547 55.400002 145.320007 C 54.922295 145.073669 54.386208 144.962982 53.849998 145 Z"/>
        <path id="path82" fill="#0097ce" stroke="none" d="M 109.710007 191.850006 C 109.074356 188.265747 108.068985 184.756989 106.710007 181.380005 C 105.839996 178.959991 104.949997 176.450012 104.289993 173.829987 C 103.802994 172.138519 103.600235 170.377899 103.690002 168.619995 C 98.814041 164.994843 95.594078 159.566986 94.75 153.549988 C 94.75 153.320007 94.75 153.089996 94.690002 152.859985 C 94.685074 152.786743 94.685074 152.713257 94.690002 152.640015 C 94.290001 152.089996 93.900002 151.540009 93.5 151.01001 C 88.201225 143.749237 81.528336 137.599579 73.860001 132.910004 C 73.029999 132.410004 72.150002 131.910004 71.160004 131.359985 L 71.07 131.309998 C 70.874924 132.137238 70.593376 132.941681 70.230003 133.709991 L 70.019997 134.170013 C 69.706665 134.783966 69.43602 135.418793 69.209999 136.070007 L 69.07 136.799988 C 69.07325 136.839935 69.07325 136.880066 69.07 136.920013 C 69.07 137.029999 69.07 137.130005 69.07 137.230011 L 69.07 137.549988 C 69.448006 138.403229 70.019821 139.156525 70.739998 139.75 C 71.931419 140.773254 72.840401 142.085083 73.379997 143.559998 C 73.474464 143.887177 73.541359 144.22168 73.580002 144.559998 C 73.629051 144.928223 73.659088 145.298706 73.669998 145.670013 L 73.669998 145.820007 C 73.67572 146.154694 73.702438 146.488678 73.75 146.820007 C 74.019997 148.570007 76.160004 150.290009 77.889999 151.670013 C 78.938911 152.094299 79.871414 152.762817 80.610001 153.619995 C 81.274765 154.291382 81.771584 155.110291 82.059998 156.01001 C 82.289635 156.820709 82.289635 157.679291 82.059998 158.48999 C 82 158.730011 81.919998 158.970001 81.830002 159.230011 L 81.830002 159.329987 C 81.760002 159.529999 81.68 159.73999 81.589996 159.950012 L 81.589996 160.049988 C 81.43 160.829987 81.260002 161.570007 81.050003 162.299988 C 81.220047 162.251404 81.394058 162.217926 81.57 162.200012 C 82.663345 162.119904 83.743385 162.479919 84.57 163.200012 C 87.110001 165.320007 87.370003 168.779999 87.57 171.829987 L 87.57 172 C 87.57 172.429993 87.629997 172.829987 87.669998 173.220001 C 88.154404 176.843872 88.154404 180.516113 87.669998 184.140015 C 87.554123 185.131073 87.211975 186.082214 86.669998 186.920013 L 86.760002 187.459991 C 87.152008 190.715302 86.838226 194.016846 85.839996 197.140015 C 85.668022 197.705658 85.370644 198.22522 84.970001 198.660004 C 84.812668 198.821655 84.638321 198.96582 84.449997 199.089996 L 84.449997 199.480011 C 84.139809 203.815033 82.869118 208.026764 80.730003 211.809998 C 85.658249 212.438507 90.621841 212.749146 95.589996 212.73999 C 99.842194 212.742004 104.091507 212.518372 108.320007 212.070007 L 108.259995 211.980011 L 108.570007 210.980011 C 110.384201 204.770264 110.77388 198.231232 109.710007 191.850006 Z"/>
    </g>
</svg>
