<?xml version="1.0" standalone="no"?>
<!DOCTYPE svg PUBLIC "-//W3C//DTD SVG 20010904//EN"
 "http://www.w3.org/TR/2001/REC-SVG-20010904/DTD/svg10.dtd">
<svg version="1.0" xmlns="http://www.w3.org/2000/svg"
 width="798.000000pt" height="798.000000pt" viewBox="0 0 798.000000 798.000000"
 preserveAspectRatio="xMidYMid meet">

<g transform="translate(0.000000,798.000000) scale(0.100000,-0.100000)"
fill="#000000" stroke="none">
<path d="M2000 5641 l-215 -46 -3 -198 -2 -198 42 5 c58 8 246 26 269 26 18 0
19 -19 21 -547 l3 -548 270 0 270 0 3 778 2 777 -222 -1 -223 -1 -215 -47z"/>
<path d="M3010 5668 c-14 -33 -170 -890 -164 -900 3 -4 141 -8 308 -8 331 0
380 -6 427 -56 18 -19 24 -37 24 -69 0 -76 -63 -119 -201 -137 -142 -19 -384
14 -517 71 -25 11 -48 17 -51 14 -3 -4 -6 -86 -6 -183 l0 -177 68 -31 c264
-120 640 -154 903 -81 253 70 390 243 389 493 -1 207 -104 381 -272 461 -102
49 -199 65 -383 65 l-153 0 -38 -65 c-21 -35 -40 -63 -42 -61 -2 2 11 33 29
67 18 35 38 91 44 124 l11 60 339 5 340 5 32 200 c18 110 31 206 28 213 -3 9
-124 12 -555 12 l-550 0 -10 -22z"/>
<path d="M4411 5677 c-8 -11 -10 -225 -9 -808 l3 -794 315 0 315 0 3 318 c2
238 5 318 14 315 6 -2 105 -146 219 -319 l207 -314 353 -3 c199 -1 357 2 362
7 5 5 -60 112 -160 262 -93 140 -211 318 -261 395 l-93 142 241 392 c132 217
239 399 236 407 -4 10 -70 13 -335 13 l-330 0 -19 -27 c-11 -16 -124 -199
-252 -408 -257 -420 -238 -390 -245 -383 -3 3 9 36 27 74 l33 69 0 335 0 335
-306 3 c-250 2 -308 0 -318 -11z"/>
<path d="M6045 3756 c-144 -29 -238 -77 -325 -165 -107 -109 -161 -248 -161
-415 0 -252 165 -385 477 -386 200 0 350 55 465 169 114 114 177 281 166 441
-12 183 -107 296 -290 346 -77 21 -248 26 -332 10z m191 -265 c49 -30 67 -80
62 -175 -8 -140 -72 -240 -170 -266 -130 -36 -219 48 -205 193 12 120 59 206
135 247 49 26 136 26 178 1z"/>
<path d="M1532 3643 c-177 -312 -212 -376 -212 -386 1 -7 58 -106 129 -222
l128 -210 118 -3 c126 -3 157 6 109 31 -39 21 -77 63 -105 117 -40 78 -37 183
10 469 23 134 41 255 41 267 0 23 -2 24 -84 24 l-84 0 -50 -87z"/>
<path d="M2041 3464 c-51 -309 -51 -352 -2 -396 25 -22 41 -28 79 -28 85 0
148 51 172 140 11 40 90 511 90 535 0 13 -24 15 -148 15 l-148 0 -43 -266z"/>
<path d="M2710 3725 c0 -42 -96 -566 -111 -610 -40 -112 -122 -213 -204 -252
-19 -9 -35 -23 -35 -30 0 -10 40 -13 189 -13 105 0 192 4 195 9 3 4 12 53 21
107 24 152 20 144 64 144 l38 0 56 -127 55 -128 196 -3 c160 -2 196 0 196 11
0 8 -31 74 -70 148 -38 73 -70 137 -70 140 0 4 24 21 54 37 171 97 231 351
111 475 -82 84 -139 97 -442 97 -134 0 -243 -2 -243 -5z m369 -271 c12 -15 21
-31 21 -36 0 -25 -33 -76 -56 -87 -32 -14 -214 -15 -214 0 0 5 5 41 11 80 l12
69 103 0 c99 0 103 -1 123 -26z"/>
<path d="M3570 3723 c0 -5 -31 -202 -70 -437 -38 -236 -70 -437 -70 -447 0
-18 11 -19 164 -19 l164 0 6 28 c6 30 36 219 36 227 0 4 19 5 42 3 l41 -3 55
-127 56 -128 191 0 c105 0 195 3 198 7 4 3 -27 71 -69 151 -41 79 -74 145 -72
146 2 1 24 14 49 29 73 42 135 118 159 194 51 165 5 285 -132 349 l-63 29
-342 3 c-189 2 -343 -1 -343 -5z m520 -263 c32 -32 22 -85 -24 -122 -17 -14
-42 -18 -125 -18 -102 0 -103 0 -98 23 3 12 9 45 13 72 3 28 8 53 11 58 2 4
49 7 104 7 86 0 102 -3 119 -20z"/>
<path d="M4685 3280 c-124 -247 -225 -452 -225 -455 0 -3 80 -5 179 -5 l178 0
33 75 33 75 137 0 138 0 9 -72 8 -73 174 -3 c96 -1 178 1 181 5 4 5 -14 125
-40 268 -26 143 -62 344 -80 448 l-33 187 -234 0 -233 0 -225 -450z m428 203
c-3 -57 0 -118 10 -173 8 -47 13 -88 10 -92 -6 -11 -143 -10 -143 1 0 4 22 55
49 113 28 58 55 134 62 171 7 37 14 67 15 67 2 0 0 -39 -3 -87z"/>
<path d="M4495 2451 c-55 -14 -77 -32 -102 -87 -31 -67 -40 -152 -23 -195 22
-53 108 -74 190 -46 31 11 36 18 46 62 7 28 13 63 13 78 1 28 1 28 -56 25 -50
-3 -58 -6 -58 -23 0 -15 8 -21 33 -23 34 -3 38 -14 22 -56 -9 -24 -15 -26 -64
-26 -77 0 -90 15 -83 97 11 118 50 158 146 151 51 -4 60 -2 64 14 3 10 2 20
-1 22 -16 9 -99 14 -127 7z"/>
<path d="M2805 2439 c-6 -18 -65 -297 -65 -309 0 -15 40 -12 45 3 2 6 9 38 15
70 11 57 12 58 43 55 28 -3 33 -9 55 -70 21 -58 28 -68 48 -68 13 0 24 2 24 4
0 2 -11 34 -25 70 -29 78 -29 76 -12 76 24 0 59 47 64 87 4 29 0 44 -15 63
-17 21 -30 25 -96 28 -57 3 -77 1 -81 -9z m143 -76 c4 -40 -27 -63 -86 -63
-36 0 -43 3 -38 18 2 9 7 32 11 50 7 33 7 33 58 30 50 -3 52 -4 55 -35z"/>
<path d="M3066 2433 c-16 -53 -46 -212 -46 -243 0 -56 27 -75 105 -75 98 0
113 19 150 186 31 137 31 149 5 149 -11 0 -20 -2 -20 -4 0 -28 -55 -247 -66
-264 -13 -20 -22 -23 -67 -20 -52 3 -52 3 -55 39 -2 19 6 78 18 129 11 52 20
100 20 107 0 20 -38 16 -44 -4z"/>
<path d="M3377 2443 c-7 -11 -67 -290 -67 -308 0 -8 9 -15 20 -15 21 0 25 11
56 158 l17 83 50 -121 c43 -105 52 -121 71 -118 18 3 25 20 53 153 39 181 39
177 11 173 -19 -3 -25 -15 -43 -103 -12 -55 -24 -107 -27 -115 -2 -8 -26 38
-53 103 -36 86 -54 117 -66 117 -10 0 -20 -3 -22 -7z"/>
<path d="M3652 2298 c-18 -84 -32 -159 -32 -165 0 -20 38 -15 44 5 6 20 46
208 47 219 0 5 9 -14 20 -42 76 -187 81 -196 102 -193 18 3 25 21 54 153 39
181 39 177 11 173 -20 -3 -25 -15 -47 -116 -13 -62 -27 -109 -31 -105 -4 4
-27 56 -51 116 -36 89 -47 107 -64 107 -20 0 -24 -14 -53 -152z"/>
<path d="M3962 2302 c-18 -81 -32 -156 -32 -165 0 -23 37 -22 44 1 6 20 66
301 66 307 0 3 -10 5 -23 5 -22 0 -25 -9 -55 -148z"/>
<path d="M4110 2446 c0 -7 -60 -287 -66 -308 -4 -14 1 -18 19 -18 22 0 25 7
46 103 12 56 24 109 27 117 3 8 27 -36 53 -100 38 -91 52 -116 69 -118 15 -2
23 3 27 20 3 13 16 77 30 143 14 66 27 130 30 143 4 17 1 22 -15 22 -25 0 -27
-6 -56 -134 l-22 -101 -15 35 c-9 19 -31 71 -50 115 -26 61 -39 81 -55 83 -12
2 -22 1 -22 -2z"/>
<path d="M4740 2441 c0 -6 4 -12 9 -15 5 -3 36 -36 69 -74 l60 -68 -70 -79
-70 -80 62 -3 63 -3 47 53 c26 29 59 67 72 83 l26 30 -72 82 -71 81 -62 1
c-35 1 -63 -3 -63 -8z"/>
<path d="M5039 2372 c39 -44 71 -83 71 -88 0 -5 -30 -43 -67 -84 l-67 -75 63
-3 62 -3 43 48 c23 26 57 64 73 83 l31 36 -76 82 -77 83 -63 -1 -64 0 71 -78z"/>
</g>
</svg>
